<svg xmlns="http://www.w3.org/2000/svg" width="75" height="60" fill="none"><path fill="#394149" d="M24.88 20.62v-2.369h-1.318v2.252c0 .403-.374.673-1.003.673-.659 0-1.018-.26-1.018-.678V18.25H20.21v2.247c0 1.17.959 1.666 2.296 1.666 1.43 0 2.375-.501 2.375-1.543ZM29.317 22.11v-1.027h-2.35V18.25h-1.333v3.86h3.683ZM33.277 19.22v-.969H28.67v.969h1.627v2.89h1.347v-2.89h1.633ZM35.048 22.11v-3.859h-1.352v3.86h1.352ZM41.25 22.11v-3.859h-1.666l-1.052 2.316-1.003-2.316h-1.72v3.86h1.253v-2.085l.904 2.084h1.121l.915-2.084v2.084h1.249ZM43.34 21.398h2.084l.339.712h1.42l-1.946-3.859h-1.588l-2.06 3.86h1.391l.36-.713Zm1.666-.866h-1.234l.486-.929.148-.354.138.35.462.933ZM51.362 19.22v-.969h-4.606v.969h1.627v2.89h1.347v-2.89h1.632ZM55.842 22.11v-.958h-2.767v-.502h2.654v-.939h-2.654v-.496h2.733v-.964h-4.03v3.86h4.064ZM30.257 24.162h-1.274s-.83 2.429-.83 2.488c0-.06-.777-2.488-.777-2.488h-1.382s-.772 2.429-.772 2.488c0-.06-.836-2.488-.836-2.488h-1.43l1.445 3.86h1.44s.777-2.306.782-2.37c.005.064.777 2.37.777 2.37h1.446l1.41-3.86ZM31.999 28.021v-3.859h-1.352v3.86h1.352ZM37.258 28.021v-3.859h-1.259v2.1l-1.853-2.1h-1.387v3.86h1.269v-2.149l1.912 2.148h1.318ZM42.525 28.021v-3.859h-1.259v2.1l-1.853-2.1h-1.387v3.86h1.269v-2.149l1.912 2.148h1.318ZM47.36 28.021v-.958h-2.768v-.502h2.654v-.939h-2.654v-.496h2.733v-.964h-4.032v3.86h4.066ZM52.556 25.337c0-.349-.084-.6-.26-.782-.232-.245-.63-.393-1.24-.393h-3.072v3.86h1.313V26.66h1.194l.96 1.361h1.464l-1.165-1.573a.942.942 0 0 0 .61-.383c.122-.172.196-.428.196-.728Zm-1.278.123a.41.41 0 0 1-.045.202c-.049.098-.177.137-.388.137h-1.544v-.703h1.52c.206 0 .344.035.412.163.035.049.045.127.045.201ZM25.434 31.819v-1.886h-.46v1.856c0 .438-.413.687-1.007.687-.701 0-1.046-.268-1.046-.69v-1.853h-.465v1.837c0 .772.602 1.114 1.493 1.114.92 0 1.485-.364 1.485-1.066ZM28.737 32.847v-.427h-2.009v-2.487h-.464v2.914h2.473ZM31.373 30.356v-.423h-3.096v.423h1.314v2.49h.468v-2.49h1.314ZM34.673 30.757a.867.867 0 0 0-.122-.483c-.138-.204-.401-.341-.84-.341h-1.885v2.914h.456v-1.229h1.33l.812 1.229h.535l-.88-1.307a.643.643 0 0 0 .49-.316.928.928 0 0 0 .104-.467Zm-.46.037a.609.609 0 0 1-.052.249c-.06.107-.197.163-.42.167h-1.455v-.862h1.37c.278 0 .427.067.505.193.033.06.052.16.052.253ZM35.994 32.127h1.815l.372.72h.497L37.2 29.933h-.545l-1.526 2.914h.486l.379-.72Zm1.622-.413h-1.422l.59-1.117.13-.27.13.27.572 1.117ZM43.386 32.568c.115-.133.167-.323.167-.527 0-.193-.055-.386-.17-.505a.86.86 0 0 0-.505-.222.451.451 0 0 0 .274-.171c.1-.115.16-.3.16-.486a.678.678 0 0 0-.186-.498c-.137-.137-.37-.226-.697-.226h-1.96v2.914h2.104c.394 0 .669-.1.813-.279Zm-.553-1.819a.43.43 0 0 1-.111.312c-.07.078-.19.111-.316.111h-1.485v-.838h1.4c.17 0 .3.033.39.115a.411.411 0 0 1 .122.3Zm.149 1.537c-.093.104-.253.156-.487.156h-1.574v-.865h1.586c.215 0 .363.045.452.13a.386.386 0 0 1 .115.293c0 .12-.026.22-.092.286ZM46.924 32.847v-.427h-2.265v-.832h2.175v-.423H44.66v-.81h2.239v-.422h-2.692v2.914h2.718ZM50.55 31.985c0-.475-.315-.72-1.09-.809-.131-.018-.413-.048-.565-.067-.72-.085-.94-.182-.94-.43 0-.242.242-.379.97-.379.563 0 .853.111.998.312a.461.461 0 0 1 .074.174h.497a1.031 1.031 0 0 0-.1-.3c-.2-.346-.612-.594-1.47-.594-1.024-.004-1.447.367-1.447.828 0 .46.33.694 1.188.794l.541.063c.665.082.873.182.873.46 0 .257-.238.442-.999.442-.623 0-.958-.111-1.091-.326a.476.476 0 0 1-.07-.216h-.49a.968.968 0 0 0 .114.394c.193.352.646.557 1.522.557 1.047 0 1.485-.338 1.485-.903ZM53.88 30.356v-.423h-3.096v.423h1.314v2.49h.468v-2.49h1.314ZM21.142 35.38c0-.297-.06-.497-.16-.65-.14-.218-.415-.333-.894-.333h-1.841v2.914h.46v-.95h1.362c.45-.004.758-.108.921-.346.104-.145.152-.353.152-.635Zm-.468 0c0 .149-.014.26-.063.334-.085.138-.26.223-.62.223h-1.284v-1.125h1.3c.337 0 .512.078.604.23.045.067.063.19.063.338ZM24.503 37.31v-.426h-2.265v-.832h2.176v-.423h-2.176v-.81h2.239v-.422h-2.692v2.914h2.718ZM28.044 35.22a.866.866 0 0 0-.123-.482c-.137-.204-.4-.341-.839-.341h-1.886v2.914h.457v-1.23h1.329l.813 1.23h.535l-.88-1.307a.643.643 0 0 0 .49-.316.93.93 0 0 0 .104-.467Zm-.46.038a.609.609 0 0 1-.053.248c-.059.108-.196.164-.42.167h-1.454v-.86h1.37c.278 0 .426.066.504.192.034.06.052.16.052.253ZM31.486 34.82v-.423h-2.591v2.914h.46v-1.24h2.034v-.435h-2.034v-.816h2.13ZM33.599 34.344c-.62 0-1.047.152-1.352.471-.256.249-.367.594-.367 1.029 0 .475.145.831.412 1.072.286.286.724.435 1.307.435.601 0 1.069-.149 1.347-.45.242-.244.368-.593.368-1.061 0-.453-.108-.798-.364-1.043-.293-.305-.731-.453-1.351-.453Zm0 2.591c-.409 0-.698-.089-.917-.267-.223-.182-.33-.46-.33-.817 0-.334.092-.612.27-.78.205-.193.516-.308.973-.308.471 0 .765.112.984.305.185.163.267.453.267.78 0 .33-.085.612-.275.783-.219.204-.527.304-.972.304ZM38.797 35.22a.867.867 0 0 0-.122-.482c-.138-.204-.401-.341-.84-.341H35.95v2.914h.456v-1.23h1.33l.812 1.23h.535l-.88-1.307a.643.643 0 0 0 .49-.316.928.928 0 0 0 .104-.467Zm-.46.038a.609.609 0 0 1-.052.248c-.06.108-.197.164-.42.167H36.41v-.86h1.37c.278 0 .427.066.505.192.033.06.052.16.052.253ZM43.237 37.31v-2.913h-.601l-1.2 2.398-1.176-2.398h-.612v2.914h.441v-2.243l1.1 2.243h.482l1.125-2.243v2.243h.441ZM44.54 36.59h1.816l.371.72h.498l-1.478-2.913h-.545l-1.526 2.914h.486l.379-.72Zm1.623-.412h-1.422l.59-1.117.13-.271.13.271.572 1.117ZM50.57 37.31v-2.913h-.443v2.264l-1.93-2.264h-.523v2.914h.449v-2.28l1.945 2.28h.501ZM54.574 36.222h-.483a.647.647 0 0 1-.16.368c-.2.234-.519.334-1.009.334-.412 0-.854-.115-1.066-.416-.11-.141-.182-.349-.182-.66 0-.28.05-.487.156-.628.178-.286.553-.434 1.081-.434.512 0 .835.14 1.006.337a.649.649 0 0 1 .17.372h.483a1.123 1.123 0 0 0-.178-.52c-.238-.353-.676-.631-1.478-.631-.764 0-1.22.245-1.474.612-.163.212-.245.509-.245.888 0 .423.101.735.275.954.253.345.74.553 1.474.553.754 0 1.203-.227 1.426-.587.126-.174.19-.382.204-.542ZM57.897 37.31v-.426h-2.265v-.832h2.176v-.423h-2.176v-.81h2.239v-.422h-2.692v2.914h2.718ZM23.945 40.205l.555 1.709h1.797l-1.453 1.056.555 1.709-1.454-1.056-1.453 1.056.555-1.709-1.454-1.056h1.797l.555-1.709ZM30.355 40.205l.567 1.709h1.833l-1.483 1.056.566 1.709-1.483-1.056-1.483 1.056.566-1.71-1.483-1.055h1.834l.566-1.709ZM36.714 40.205l.567 1.709h1.833L37.63 42.97l.566 1.709-1.483-1.056-1.483 1.056.566-1.71-1.483-1.055h1.833l.567-1.709ZM43.073 40.205l.566 1.709h1.834L43.99 42.97l.566 1.709-1.483-1.056-1.483 1.056.566-1.71-1.483-1.055h1.833l.567-1.709ZM49.482 40.205l.555 1.709h1.797L50.38 42.97l.555 1.709-1.453-1.056-1.453 1.056.555-1.71-1.454-1.055h1.797l.555-1.709ZM27.06 11.376l.42 1.292h1.358l-1.1.799.42 1.291-1.099-.798-1.099.798.42-1.291-1.099-.799h1.359l.42-1.292ZM31.906 11.374l.428 1.292h1.386l-1.121.798.428 1.292-1.121-.798-1.122.798.429-1.292-1.122-.798h1.386l.429-1.292ZM36.714 11.374l.428 1.292h1.386l-1.121.798.428 1.292-1.121-.798-1.122.798.428-1.292-1.121-.798h1.386l.429-1.292ZM41.522 11.374l.428 1.292h1.387l-1.122.798.428 1.292-1.12-.798-1.122.798.428-1.292-1.121-.798h1.386l.428-1.292ZM46.368 11.374l.42 1.292h1.358l-1.1.798.42 1.292-1.098-.798-1.1.798.42-1.292-1.099-.798h1.359l.42-1.292Z"/><path fill="#394149" fill-rule="evenodd" d="M7.71 34.63C5.857 23.04 11.264 11.573 22.088 6.648l.1.22c-10.715 4.875-16.077 16.23-14.24 27.726C9.981 47.31 20.24 54.937 32.804 55.305l-.007.24C20.135 55.176 9.764 47.48 7.71 34.632Z" clip-rule="evenodd"/><path fill="#394149" d="M19.741 9.606c-2 .045-4.341 1.173-5.722 2.812 1.107 1.028 2.89.648 4.173.438 1.83-.3 3.777-.882 5.505-1.706-.71-1.512-2.624-1.575-3.956-1.544Z"/><path fill="#394149" d="M18.168 7.138a35.975 35.975 0 0 1-4.133 5.295c-1.286-1.207-.51-3.215.015-4.464.95-2.263 3.23-4.215 5.612-5.213.654 1.488-.767 3.249-1.494 4.382ZM13.953 14.78c-1.873.666-3.483 2.54-4.29 4.422 1.346.626 2.877-.278 3.997-.88 1.538-.827 3.107-1.968 4.342-3.288-1.116-1.177-2.81-.694-4.05-.253Z"/><path fill="#394149" d="M11.683 12.937a28.735 28.735 0 0 1-2 6.275c-1.576-.743-1.516-2.872-1.449-4.226.115-2.313 1.409-4.95 3.21-6.625 1.102 1.182.5 3.235.239 4.576ZM10.349 21.463c-1.56 1.231-2.507 3.513-2.726 5.55 1.476.17 2.657-1.174 3.535-2.096 1.195-1.255 2.327-2.829 3.046-4.476-1.408-.768-2.839.22-3.855 1.022Z"/><path fill="#394149" d="M7.645 20.424a26.127 26.127 0 0 1 0 6.592c-1.716-.21-2.286-2.272-2.622-3.566-.581-2.232-.192-5.116.94-7.286 1.414.783 1.504 2.9 1.682 4.26ZM9.124 28.756c-1.235 1.81-1.67 4.644-1.114 6.923 1.632-.386 2.441-2.234 3.09-3.539.864-1.734 1.594-3.757 1.855-5.742-1.77-.369-3.018 1.166-3.831 2.358Z"/><path fill="#394149" d="M5.882 28.573a33.087 33.087 0 0 1 2.153 7.1c-1.872.403-3.22-1.563-4.002-2.866-1.393-2.32-1.799-5.536-1.289-8.31 1.714.343 2.552 2.72 3.138 4.076ZM9.988 36.627c-.663 2.195-.202 5.178 1.14 7.242 1.476-.96 1.68-3.075 1.889-4.591.276-2 .405-4.216.063-6.29-1.887.24-2.65 2.173-3.092 3.64Z"/><path fill="#394149" d="M6.709 37.567a38.876 38.876 0 0 1 4.442 6.288c-1.708 1.066-3.713-.391-4.928-1.422-2.157-1.829-3.557-4.937-3.89-7.868 1.795-.241 3.377 1.856 4.376 3.002ZM13.467 44.096c.143 2.555 1.806 5.235 4.02 6.761 1.07-1.464.4-3.707.035-5.273-.492-2.109-1.171-4.304-2.181-6.252-1.762.93-1.967 3.082-1.874 4.764Z"/><path fill="#394149" d="M10.49 46.254a61.486 61.486 0 0 1 7.015 4.58c-1.332 1.754-3.995 1.055-5.645.491-2.908-.993-5.501-3.612-6.856-6.522 1.717-.884 4.068.664 5.485 1.451ZM20.3 50.337c1.44 2.628 4.721 4.342 7.811 4.755.333-1.91-1.734-3.802-2.86-5.04-1.604-1.761-3.275-3.59-5.149-5.112-1.404 1.63-.661 3.828.198 5.397Z"/><path fill="#394149" d="M18.244 53.668c3.273.34 6.602.83 9.873 1.395-.312 2.41-4.137 2.8-5.874 2.942-3.56.292-7.521-1.14-10.28-3.549 1.37-1.612 4.538-.969 6.281-.788ZM24.548 4.624c-2.197.627-4.77 1.816-6.04 4.011 2.306-.251 4.573-1.072 6.79-1.697 2.483-.7 5.098-1.225 7.502-2.191-2.633-1.054-5.737-.841-8.252-.123Z"/><path fill="#394149" fill-rule="evenodd" d="M67.061 34.593c1.837-11.495-3.525-22.85-14.24-27.726l.1-.22C63.746 11.572 69.154 23.04 67.3 34.631c-2.053 12.848-12.425 20.544-25.086 20.915l-.007-.241c12.563-.368 22.822-7.995 24.855-20.712Z" clip-rule="evenodd"/><path fill="#394149" d="M55.269 9.606c2 .045 4.34 1.173 5.723 2.812-1.108 1.028-2.892.648-4.173.438-1.832-.3-3.779-.882-5.506-1.706.71-1.512 2.623-1.575 3.956-1.544Z"/><path fill="#394149" d="M56.841 7.138a36.026 36.026 0 0 0 4.133 5.295c1.286-1.207.51-3.215-.015-4.464-.95-2.263-3.229-4.215-5.612-5.213-.654 1.488.767 3.249 1.494 4.382ZM61.057 14.78c1.873.666 3.482 2.54 4.29 4.422-1.347.626-2.878-.278-3.998-.88-1.538-.827-3.107-1.968-4.34-3.288 1.114-1.177 2.808-.694 4.048-.253Z"/><path fill="#394149" d="M63.327 12.937a28.724 28.724 0 0 0 2 6.275c1.576-.743 1.516-2.872 1.448-4.226-.115-2.313-1.408-4.95-3.209-6.625-1.103 1.182-.5 3.235-.239 4.576ZM64.66 21.463c1.562 1.231 2.508 3.513 2.727 5.55-1.476.17-2.656-1.174-3.534-2.096-1.196-1.255-2.328-2.829-3.046-4.476 1.407-.768 2.838.22 3.854 1.022Z"/><path fill="#394149" d="M67.366 20.424a26.113 26.113 0 0 0-.001 6.592c1.717-.21 2.287-2.272 2.623-3.566.58-2.232.19-5.116-.94-7.286-1.414.783-1.505 2.9-1.682 4.26ZM65.886 28.756C67.12 30.566 67.555 33.4 67 35.68c-1.632-.386-2.441-2.234-3.091-3.539-.863-1.734-1.593-3.757-1.854-5.742 1.77-.369 3.018 1.166 3.83 2.358Z"/><path fill="#394149" d="M69.128 28.573a33.074 33.074 0 0 0-2.152 7.1c1.87.403 3.218-1.563 4-2.866 1.394-2.32 1.8-5.536 1.29-8.31-1.713.343-2.552 2.72-3.138 4.076ZM65.022 36.627c.662 2.195.203 5.178-1.14 7.242-1.475-.96-1.68-3.075-1.89-4.591-.274-2-.404-4.216-.063-6.29 1.887.24 2.65 2.173 3.093 3.64Z"/><path fill="#394149" d="M68.3 37.567a38.947 38.947 0 0 0-4.442 6.288c1.708 1.066 3.713-.391 4.93-1.422 2.155-1.829 3.556-4.937 3.888-7.868-1.795-.241-3.377 1.856-4.376 3.002ZM61.541 44.096c-.142 2.555-1.805 5.235-4.019 6.761-1.07-1.464-.399-3.707-.035-5.273.491-2.109 1.171-4.304 2.181-6.252 1.762.93 1.967 3.082 1.873 4.764Z"/><path fill="#394149" d="M64.52 46.254a61.472 61.472 0 0 0-7.015 4.58c1.332 1.754 3.994 1.055 5.644.491 2.91-.993 5.502-3.612 6.856-6.522-1.717-.884-4.068.664-5.485 1.451ZM54.71 50.337c-1.44 2.628-4.721 4.342-7.812 4.755-.333-1.91 1.734-3.802 2.861-5.04 1.603-1.761 3.274-3.59 5.148-5.112 1.405 1.63.662 3.828-.197 5.397Z"/><path fill="#394149" d="M56.765 53.668c-3.273.34-6.6.83-9.872 1.395.312 2.41 4.137 2.8 5.873 2.942 3.561.292 7.522-1.14 10.28-3.549-1.37-1.612-4.537-.969-6.28-.788ZM50.462 4.624c2.197.627 4.77 1.816 6.04 4.011-2.306-.251-4.573-1.072-6.79-1.697-2.484-.7-5.098-1.225-7.503-2.191 2.634-1.054 5.737-.841 8.253-.123ZM38.934 3.488 37.806 1 36.7 3.442l-2.573-1.596 1.653 3.475h4.112l1.593-3.475-2.551 1.642ZM39.866 5.86h-4.118v.608h4.118V5.86ZM38.1 52.872l.664 2.042h2.148l-1.737 1.262.663 2.043-1.737-1.263-1.737 1.263.663-2.043-1.737-1.262h2.147l.664-2.042Z"/></svg>