<svg xmlns="http://www.w3.org/2000/svg" width="80" height="80" fill="none"><path stroke="#000" stroke-miterlimit="10" stroke-width="1.6" d="M40.64 75.952A36 36 0 0 1 4.64 40V3.952h72V40a36 36 0 0 1-36 35.952Z"/><path stroke="#000" stroke-miterlimit="10" stroke-width="1.6" d="M40.64 70.608A31.888 31.888 0 0 1 8.752 38.72V6.832h63.76V38.72A31.887 31.887 0 0 1 40.64 70.608Z"/><path stroke="#000" stroke-miterlimit="10" stroke-width="1.6" d="M40.64 65.248A27.779 27.779 0 0 1 12.8 37.472V9.712h55.6v27.76a27.76 27.76 0 0 1-27.76 27.776Z"/><path stroke="#000" stroke-miterlimit="10" stroke-width="1.6" d="M40.64 59.888A23.664 23.664 0 0 1 16.976 36.24V12.576h47.312V36.24A23.648 23.648 0 0 1 40.64 59.888Z"/><path stroke="#000" stroke-miterlimit="10" stroke-width="1.6" d="M40.64 54.544a19.552 19.552 0 0 1-19.552-19.552V15.456h39.088v19.536A19.552 19.552 0 0 1 40.64 54.544Z"/><path stroke="#000" stroke-miterlimit="10" stroke-width="1.6" d="M40.64 49.184A15.44 15.44 0 0 1 25.2 33.76V18.336H56V33.76a15.44 15.44 0 0 1-15.36 15.424Z"/><path stroke="#000" stroke-miterlimit="10" stroke-width="1.6" d="M40.64 43.84a11.328 11.328 0 0 1-11.328-11.328V21.2h22.64v11.312A11.328 11.328 0 0 1 40.64 43.84Z"/><path stroke="#000" stroke-miterlimit="10" stroke-width="1.6" d="M40.64 38.48a7.2 7.2 0 0 1-7.2-7.2v-7.2h14.4v7.2a7.215 7.215 0 0 1-7.2 7.2Z"/></svg>