<svg xmlns="http://www.w3.org/2000/svg" width="70" height="44" fill="none"><g fill="#3A3B7B" clip-path="url(#a)"><path d="M65.527 5.408c0 .051 0 .116-.014.154-.065.5-.065 1-.026 1.513.026.129.053.257.158.36.17.192.433.154.538-.077a.526.526 0 0 0 .026-.347c-.132-.487-.158-1-.17-1.5v-.103c.144-.013.275-.026.393-.026a.635.635 0 0 0 .236-.064c.197-.102.197-.32-.013-.423a.658.658 0 0 0-.276-.051c-.328.013-.656.013-.984.013-.118 0-.236.012-.354.025-.065.013-.144.013-.197.052-.091.038-.144.102-.144.192.013.09.053.141.144.18a.306.306 0 0 0 .184.05c.157.014.328.04.499.052Zm3.607.59c0 .013.013.026.013.026.053.346.105.68.144 1.013.014.115.027.218.105.308.17.218.433.192.551-.039a.561.561 0 0 0 .04-.359c-.079-.385-.118-.77-.197-1.141a7.87 7.87 0 0 0-.184-.654.308.308 0 0 0-.288-.231.319.319 0 0 0-.341.166 1.63 1.63 0 0 0-.197.321c-.092.205-.17.41-.276.603a.382.382 0 0 1-.052.128c-.013-.025-.026-.038-.026-.038-.17-.32-.328-.642-.499-.95-.026-.025-.04-.05-.052-.076-.079-.116-.17-.18-.315-.18a.387.387 0 0 0-.302.205c-.026.052-.026.09-.04.141-.052.41-.117.821-.17 1.232-.026.23-.04.461-.04.692a.252.252 0 0 0 .027.167.236.236 0 0 0 .21.18c.131.012.223-.026.262-.129a.735.735 0 0 0 .066-.205c.053-.23.092-.449.131-.667.026-.128.04-.23.079-.372.026.051.052.09.079.128.118.154.236.308.38.437.144.102.262.09.38-.026l.066-.064c.118-.18.262-.36.38-.539.027-.026.04-.051.066-.077ZM38.909 5.66c-.092.245-.109.42-.067.566.047.199.167.264.331.213 1.54-.372 4.92.685 6.17.98.295.062.535-.31.334-.645-.294-.323-3.67-1.707-4.96-1.783-.505-.027-1.407-.154-1.808.67ZM52.114 1.18c.164.093.256.181.3.28.068.13.033.22-.08.265-1.02.486-2.375 2.578-2.922 3.3-.132.166-.438.07-.484-.203.01-.309 1.21-2.58 1.881-3.198.264-.242.699-.715 1.305-.444ZM44.002.15c.197-.146.402-.197.507-.102 1.537 1.285 2.352 3.32 2.856 5.183.02.043.02.105.005.17-.006.056-.047.114-.113.16-.07.05-.131.065-.16.022-.673-.896-4.52-4.38-3.095-5.433ZM11.461 22.428a5.674 5.674 0 0 1 1.192-.665 2.168 2.168 0 0 1 1.346.059c.43.162.795.457 1.04.84a1.979 1.979 0 0 1-.335 2.4c-.243.253-.52.472-.822.654-1.348.85-2.707 1.655-4.067 2.506a6.67 6.67 0 0 1-.882.572 2.3 2.3 0 0 1-1.52.173 2.258 2.258 0 0 1-1.282-.815 4.557 4.557 0 0 1-.596-.944c-1.288-2.646-2.624-5.281-3.864-7.975-.572-1.165-1.037-2.506-1.49-3.8a1.588 1.588 0 0 1-.107-1.215 1.63 1.63 0 0 1 .79-.944 1.691 1.691 0 0 1 1.24-.138c.415.114.77.381.986.746a19.074 19.074 0 0 1 1.765 2.752c1.288 2.331 2.516 4.663 3.756 6.925.072.125.152.245.239.361a11.65 11.65 0 0 0 2.611-1.492ZM24.776 21.614c-2.945 3.37-7.882 2.518-10.362-1.819-1.765-3.078-2.075-8.16 1.765-11.367a6.394 6.394 0 0 1 2.85-1.329 6.287 6.287 0 0 1 3.749.634 6.093 6.093 0 0 1 2.654 2.666c2.099 3.73 1.8 8.487-.656 11.215Zm-1.192-7.858a4.202 4.202 0 0 0-1.777-2.215 2.57 2.57 0 0 0-3.184.198c-1.705 1.48-2.063 4.99-.823 7.077.159.34.39.643.68.886a2.68 2.68 0 0 0 3.183.175 5.502 5.502 0 0 0 1.941-2.76 5.386 5.386 0 0 0-.056-3.35l.036-.01ZM36.795 15.226a2.364 2.364 0 0 1-1.764-.327 1.74 1.74 0 0 1-.567-.506 1.693 1.693 0 0 1-.25-1.445c.07-.243.194-.47.364-.66.296-.385.716-.66 1.192-.781a17.638 17.638 0 0 1 3.816-.642 2.193 2.193 0 0 1 1.599.454c.222.176.406.394.54.64.136.246.219.517.245.795.373 1.367.414 2.8.12 4.185-1.073 4.477-4.77 6.016-8.92 4.582a6.174 6.174 0 0 1-2.933-2.052 9.54 9.54 0 0 1-2.063-3.975 8.19 8.19 0 0 1 .093-3.948 8.317 8.317 0 0 1 1.934-3.467 8.435 8.435 0 0 1 3.291-2.46 3.795 3.795 0 0 1 2.672-.35c.204.056.39.164.538.313a1.141 1.141 0 0 1-.05 1.669 6.127 6.127 0 0 1-.965.7 9.856 9.856 0 0 0-2.72 2.506 5.408 5.408 0 0 0-.973 2.168 5.347 5.347 0 0 0 .056 2.367 5.241 5.241 0 0 0 1.717 2.717c2.623 2.332 6.033.082 5.437-3.101-.87.21-1.633.431-2.409.618ZM52.822 21.8c-3.876 2.332-8.288 0-9.254-4.896-.703-3.498.632-8.394 5.307-10.26a6.489 6.489 0 0 1 3.136-.396 6.244 6.244 0 0 1 3.349 1.757 6.01 6.01 0 0 1 1.67 3.338c.788 4.162-1 8.604-4.209 10.458Zm1.347-7.846a4.062 4.062 0 0 0-.99-2.646 2.507 2.507 0 0 0-1.395-.93 2.557 2.557 0 0 0-1.681.149c-2.099.886-3.577 4.104-3.04 6.47.04.372.164.73.36 1.05.198.32.465.594.782.802.316.21.676.348 1.053.407.378.058.764.035 1.131-.067a5.629 5.629 0 0 0 2.747-2.025 5.43 5.43 0 0 0 1.033-3.21ZM60.95 22.78a1.616 1.616 0 0 1-.638 1.075 1.689 1.689 0 0 1-2.327-.305 1.596 1.596 0 0 1 .312-2.275 1.688 1.688 0 0 1 2.327.305c.267.342.384.774.326 1.2ZM59.912 7.053c.227-.339.56-.597.949-.735.389-.139.813-.151 1.21-.035.403.099.759.33 1.009.655.25.325.377.723.362 1.13a13.57 13.57 0 0 1-.298 1.934c-.394 2.157-.775 4.314-1.192 6.448-.191.85-.442 1.667-.716 2.53-.095.27-.255.513-.465.71-.13.15-.298.264-.485.333a1.217 1.217 0 0 1-1.136-.16 1.171 1.171 0 0 1-.37-.452 2.654 2.654 0 0 1-.227-1.014c0-1.446 0-2.903.096-4.36.162-2.08.48-4.146.953-6.18.056-.272.161-.533.31-.77v-.034Z"/><path fill-rule="evenodd" d="M6.423 32.15c-.14.306-.18.649-.11.979.045.434.146.862.299 1.272.19.503.405 1 .668 1.613l.19.443c.356.83.802 1.892 1.397 3.427.168.436.317.876.468 1.319.06.179.122.358.184.538.224.64.61 1.214 1.12 1.67.217.25.505.432.828.524.329.093.678.087 1.004-.017.325-.104.611-.302.82-.567.205-.26.327-.573.35-.9a3.538 3.538 0 0 0-.13-1.913 32.677 32.677 0 0 0-1.202-3.041l-.002-.005a188.605 188.605 0 0 0-2.317-4.67l-.006-.01a4.031 4.031 0 0 0-.9-1.07 1.593 1.593 0 0 0-1.976-.333c-.302.17-.542.429-.685.74ZM17.906 28.299a8.556 8.556 0 0 0-3.608-.128c-.927.09-1.84.299-2.473.713-.322.211-.583.482-.728.826-.145.346-.164.742-.044 1.183.217.808.5 1.593.783 2.376l.045.127.002.003c.849 2.274 1.706 4.54 2.572 6.8.1.356.243.699.425 1.023l.003.006c.24.402.548.762.91 1.064a1.4 1.4 0 0 0 1.387.289c.238-.08.448-.222.608-.412.157-.186.26-.41.299-.648a3.196 3.196 0 0 0-.144-1.948c-.078-.208-.14-.421-.204-.646l-.066-.228c1.98-.757 4.088-1.775 4.83-4.143.29-.818.314-1.704.068-2.537a4.193 4.193 0 0 0-1.44-2.114 8.441 8.441 0 0 0-3.225-1.606Zm-3.268 2.904.118-.03a5.515 5.515 0 0 1 3.715.743c.488.331.687.7.722 1.054.035.365-.1.76-.373 1.14-.515.718-1.455 1.293-2.305 1.4a406.487 406.487 0 0 1-1.877-4.307Z" clip-rule="evenodd"/><path d="M25.765 25.748c1.404-.634 3.142-.744 4.503-.298.343.098.64.309.841.597.2.287.292.633.261.978a1.396 1.396 0 0 1-.164.644 1.433 1.433 0 0 1-.455.508 1.474 1.474 0 0 1-1.33.173l-.017-.006-.015-.008a1.526 1.526 0 0 0-.356-.13h-.008c-.957-.25-1.86.163-2.19.669-.157.24-.176.485-.045.706.14.237.484.504 1.18.694l.587.15c.55.14 1.123.285 1.676.486h.002c2.553.95 3.504 2.917 3.178 4.767-.322 1.829-1.884 3.494-4.234 3.887a5.143 5.143 0 0 1-2.581-.105 5.05 5.05 0 0 1-2.193-1.348l-.015-.017a1.858 1.858 0 0 1-.373-.81 1.393 1.393 0 0 1 .079-.794c.102-.25.276-.467.5-.625a1.556 1.556 0 0 1 1.673-.127c.26.122.502.28.72.466l.003.003c.385.344.85.434 1.297.35a1.956 1.956 0 0 0 1.152-.693c.272-.345.381-.755.251-1.153-.13-.402-.522-.85-1.384-1.227a7.416 7.416 0 0 0-.701-.242l-.2-.06c-.18-.053-.364-.108-.545-.168-.125-.042-.249-.081-.371-.12-.336-.107-.662-.21-.977-.35a3.355 3.355 0 0 1-1.685-1.248 3.235 3.235 0 0 1-.591-1.993c.002-1.728 1.115-2.919 2.527-3.556ZM43.562 25.563a1.86 1.86 0 0 0-1.733.07c-.26.15-.476.36-.631.613a1.923 1.923 0 0 0-.287 1.452c.051.32.107.63.163.937.092.506.181 1.002.24 1.507l.002.013c.135.792.205 1.594.211 2.397v.011a3.289 3.289 0 0 1-.84 2.37l-.01.012c-.19.239-.445.421-.736.526a1.705 1.705 0 0 1-1.72-.337 1.628 1.628 0 0 1-.47-.764 8.138 8.138 0 0 1-.3-1.887l.296-4.626.015-.185c.011-.14.023-.284.027-.418a2.167 2.167 0 0 0-.045-.59 1.105 1.105 0 0 0-.3-.539 1.502 1.502 0 0 0-.649-.35c-.491-.14-.907-.135-1.253.008-.347.144-.584.41-.752.719-.167.306-.274.667-.355 1.03-.06.269-.108.551-.154.82l-.047.271v.003a19.228 19.228 0 0 0-.218 4.46c.018.805.19 1.6.506 2.343a5.063 5.063 0 0 0 1.852 2.385 5.242 5.242 0 0 0 2.914.94 5.25 5.25 0 0 0 2.944-.843 5.074 5.074 0 0 0 1.934-2.324c.545-1.207.8-2.52.748-3.84-.032-.962-.086-1.932-.139-2.898-.026-.473-.052-.945-.075-1.415a2.275 2.275 0 0 0-.456-1.307 1.815 1.815 0 0 0-.682-.564ZM53.196 32.818l-.087.106a302.265 302.265 0 0 1-.632-3.747l-.222-1.348-.009-.05-.027-.044c-.051-.081-.056-.161-.056-.332v-.02l-.004-.019a1.757 1.757 0 0 0-.467-.94c-.248-.259-.57-.44-.924-.518a1.888 1.888 0 0 0-1.068.054c-.342.12-.64.337-.858.622-.18.218-.328.461-.439.72-.251.559-.505 1.118-.76 1.68l-.004.01c-.635 1.4-1.274 2.811-1.895 4.233l-.002.005c-.38.922-.695 1.893-1.009 2.862l-.188.579c-.114.305-.163.63-.146.954-.02.29.05.58.204.83a1.486 1.486 0 0 0 1.61.65c.312-.076.59-.253.789-.5a5.26 5.26 0 0 0 .65-.992 155.591 155.591 0 0 0 1.53-3.177c.193-.41.38-.777.595-1.177.014.05.03.097.045.146a9.3 9.3 0 0 0 1.122 2.74c.098.18.235.338.4.462a1.47 1.47 0 0 0 1.195.258c.207-.044.401-.132.57-.257l.332-.243 2.582-2.127-.153.952c-.21 1.307-.417 2.604-.638 3.902a3.58 3.58 0 0 0 0 1.75c.063.324.223.621.46.856a1.73 1.73 0 0 0 1.868.359c.308-.129.57-.344.753-.617.426-.517.691-1.142.764-1.802.11-.931.233-1.875.357-2.82.143-1.088.285-2.175.406-3.242v-.004c.116-1.168.172-2.34.169-3.514.025-.37-.07-.74-.27-1.055a1.803 1.803 0 0 0-.855-.704 1.923 1.923 0 0 0-1.174-.125 1.893 1.893 0 0 0-1.014.577c-.476.43-.923.892-1.337 1.38l-.003.003a167.33 167.33 0 0 0-1.349 1.672c-.271.34-.542.678-.811 1.012Z"/></g><defs><clipPath id="a"><path fill="#fff" d="M0 0h70v44H0z"/></clipPath></defs></svg>