<?xml version="1.0" encoding="utf-8"?>
<!-- Generator: Adobe Illustrator 26.5.0, SVG Export Plug-In . SVG Version: 6.00 Build 0)  -->
<svg version="1.1" id="Layer_1" xmlns="http://www.w3.org/2000/svg" xmlns:xlink="http://www.w3.org/1999/xlink" x="0px" y="0px"
	 viewBox="0 0 1200 1200" style="enable-background:new 0 0 1200 1200;" xml:space="preserve">
<style type="text/css">
	.st0{clip-path:url(#SVGID_00000139251703397892257250000009504906337162239918_);}
	.st1{clip-path:url(#SVGID_00000157302225990173747410000006095952865111579521_);fill:#FFFFFF;}
	.st2{clip-path:url(#SVGID_00000051351135558282701070000017844025264089618111_);fill:#FFFFFF;}
	.st3{clip-path:url(#SVGID_00000135651975362188633340000007470052558840790940_);fill:#FFFFFF;}
	.st4{clip-path:url(#SVGID_00000062181979520567921230000002070207948884120719_);fill:#FFFFFF;}
	.st5{clip-path:url(#SVGID_00000052818929529030077480000004832467397052683449_);fill:#FFFFFF;}
	.st6{clip-path:url(#SVGID_00000013153497228982689820000004327558878722328483_);fill:#FFFFFF;}
	.st7{clip-path:url(#SVGID_00000133520837372525597000000011247503051740414132_);fill:#FFFFFF;}
	.st8{clip-path:url(#SVGID_00000059309856280388192970000001991256304052743088_);fill:#FFFFFF;}
	.st9{clip-path:url(#SVGID_00000018955023881581381400000016637831626759148976_);fill:#FFFFFF;}
	.st10{clip-path:url(#SVGID_00000181050249195009968590000005564787005310452608_);fill:#FFFFFF;}
</style>
<g id="Primary_Logo_REV_00000129186681771338301810000012717562101534892933_">
	<g>
		<g>
			<defs>
				<rect id="SVGID_1_" x="191.5" y="284.5" width="817" height="631"/>
			</defs>
			<clipPath id="SVGID_00000142866094226064234450000003088167417696139453_">
				<use xlink:href="#SVGID_1_"  style="overflow:visible;"/>
			</clipPath>
			<g style="clip-path:url(#SVGID_00000142866094226064234450000003088167417696139453_);">
				<g>
					<defs>
						<rect id="SVGID_00000094600711987235674000000018004121077164664754_" x="191.5" y="284.5" width="817" height="631"/>
					</defs>
					<clipPath id="SVGID_00000111155772908445250070000015376723932786055086_">
						<use xlink:href="#SVGID_00000094600711987235674000000018004121077164664754_"  style="overflow:visible;"/>
					</clipPath>
					<path style="clip-path:url(#SVGID_00000111155772908445250070000015376723932786055086_);fill:#FFFFFF;" d="M480.1,514.2
						c11.7-1.3,13.6-5.3,17.2-13c2.7-6,3.6-9.8,3.7-11.8c-1.5-0.6-4.3-1.4-8.7-1.8C489.3,494,485.6,502.2,480.1,514.2"/>
				</g>
				<g>
					<defs>
						<rect id="SVGID_00000134961974122591715710000009300435444585829030_" x="191.5" y="284.5" width="817" height="631"/>
					</defs>
					<clipPath id="SVGID_00000099634064936112330110000000914017698146140057_">
						<use xlink:href="#SVGID_00000134961974122591715710000009300435444585829030_"  style="overflow:visible;"/>
					</clipPath>
					<path style="clip-path:url(#SVGID_00000099634064936112330110000000914017698146140057_);fill:#FFFFFF;" d="M441.5,598.8
						c-4,8.6-16.5,36.1-24.9,54.6c34.5,0,38.3-5.6,46.8-24.2c7.3-16.1,6.2-23.4,5.1-24.8C466.5,601.6,456.9,598.5,441.5,598.8
						 M456.9,629.5c-5.2,11.2-10,17.9-30.6,17.5c6.4-14.1,16-35.1,19-41.7c4.8-0.5,16,0.8,17.5,2.9
						C463.6,609.3,460.1,622.5,456.9,629.5"/>
				</g>
				<g>
					<defs>
						<rect id="SVGID_00000126281142552714722260000016480796071428413339_" x="191.5" y="284.5" width="817" height="631"/>
					</defs>
					<clipPath id="SVGID_00000162351404681830867170000017752474986598681529_">
						<use xlink:href="#SVGID_00000126281142552714722260000016480796071428413339_"  style="overflow:visible;"/>
					</clipPath>
					<path style="clip-path:url(#SVGID_00000162351404681830867170000017752474986598681529_);fill:#FFFFFF;" d="M908.8,341
						c-13.8-14.9-60.7-56.1-152.8-56.1c-38.9,0-75.3,5-102.5,10.2c-31.3-7.9-56.4-10.6-76-10.6c-50.7,0-66.2,11.7-66.2,32.5
						c0,22.2,8.8,38.2,8.8,38.2c-23.5,14.3-50.8,33.2-65.5,43.5H347.4l-43.3,95.1h44.1l-64.5,141.7c-2.4,5.1-15.1,10.3-28.2,10.3
						h-20.6L191.5,741h251.9c-2.6,12.1-3.9,24.4-3.9,37c0,83.7,59.8,137.5,141.4,137.5c125.2,0,169.8-150.2,169.8-150.2h-101
						c0,0-18.4,45.4-54,45.4c-13.2,0-15.5-4.9-15.5-16.5c0-49.6,46-135.1,83.6-135.1c30.1,0-4.4,97-4.4,97h96.9l55.4-121.6
						c16,8.3,34.2,16.1,53.2,16.1c54.1,0,69.4-42.4,69.4-42.4l-13.2-7.4c12.3-28.6,16.1-45.2,10.2-60c9.2-9,18.3-21.9,20.3-38.9
						c0,0,56.8-36,56.8-88C1008.5,397,973.3,361,908.8,341 M1002,413.9c0,24.4-20.6,63.2-56.5,84.1c-2,35.7-40.1,53.5-40.1,53.5
						s11-23.5,5.8-40.7c-6.2,1.2-12.7,1.8-19.5,1.8c-15.2,0-38.6-12.1-55.3-12.1s-17.2,3.5-17.2,3.5c0,8.5,0.3,15.9,0.7,22.3
						c30.5,5.3,44.7,25.2,56.1,41.4c4,5.7,7.8,11.1,11.8,14.8c4.4-3.2,25-16.5,39.2-33.5c0,0,4.8,15.7-14.4,54.5l13.3,7.4
						c0,0-15.3,33.2-61.1,33.2c-19.5,0-39.2-9.3-56.3-18.5l-56.5,124l-83.7,0c0,0,34.2-97-4.7-97c-43.8,0-90.1,92.1-90.1,141.6
						c0,20.2,10.6,23,22,23c38.5,0,58.2-45.4,58.2-45.4h87.9c0,0-45.4,137.3-160.9,137.3c-67.2,0-134.9-40.5-134.9-131.1
						c0-14.8,1.9-29.3,5.6-43.4H201.5l37.5-82.2h16.5c25.5,0,33.3-12.7,33.9-13.7l68.9-151.1h-44.1l37.5-82.2h105.2
						c15.2-10.8,46.9-32.8,72-47.6c-8.1-14.5-12.8-30.7-10.2-48.1c0.5-3.6,2.6-6.8,5.8-8.6c1.8-1.1,39-22.4,129.1,0.8
						c27.1-5.2,63.7-10.3,102.7-10.3c93.1,0,138,42.7,149.2,55.3c70,20.6,94,59.2,95,60.9C1001.4,409.5,1002,411.6,1002,413.9
						 M912.5,555L889,573.9c-2.4-2.8-4.9-6.3-7.5-10.1c-10.7-15.2-25.5-36-55.2-42.9c-0.2-4-0.3-8.4-0.3-13.2
						c1.9-0.4,5.3-0.8,10.7-0.8c14.7,0,39.5,12.2,55.3,12.2c4.9,0,9.6-0.3,14.2-0.9c1.6,19.4-14,46.7-14,46.7L912.5,555z"/>
				</g>
				<g>
					<defs>
						<rect id="SVGID_00000056412166780615970800000007714400148704202175_" x="191.5" y="284.5" width="817" height="631"/>
					</defs>
					<clipPath id="SVGID_00000160893169219063206350000010349889564274665358_">
						<use xlink:href="#SVGID_00000056412166780615970800000007714400148704202175_"  style="overflow:visible;"/>
					</clipPath>
					<path style="clip-path:url(#SVGID_00000160893169219063206350000010349889564274665358_);fill:#FFFFFF;" d="M977,399
						c-4,1.6-16,7.7-16,21.1c0,11.5,10,26.9,5.3,45.4c15.2-17.2,23.6-37.4,23.6-51.6C989.9,413.9,986.1,407.7,977,399"/>
				</g>
				<g>
					<defs>
						<rect id="SVGID_00000101788742917323116740000001883084239697982895_" x="191.5" y="284.5" width="817" height="631"/>
					</defs>
					<clipPath id="SVGID_00000094594115142586465600000007875065962891148416_">
						<use xlink:href="#SVGID_00000101788742917323116740000001883084239697982895_"  style="overflow:visible;"/>
					</clipPath>
					<path style="clip-path:url(#SVGID_00000094594115142586465600000007875065962891148416_);fill:#FFFFFF;" d="M475.8,461.9
						l-35.2,77.2c51.8,3.9,67.5,0,80-27.4C543.3,461.9,497,460.2,475.8,461.9 M508.3,506.2c-6.9,15.2-12.2,21.6-47.3,20.6l23.6-51.8
						c13.4-0.1,23.7,2.5,27.1,7.3C514.6,486.4,513.3,495.1,508.3,506.2"/>
				</g>
				<g>
					<defs>
						<rect id="SVGID_00000098181501258503978640000003920299039997357726_" x="191.5" y="284.5" width="817" height="631"/>
					</defs>
					<clipPath id="SVGID_00000164492263063855367560000007256701320360937108_">
						<use xlink:href="#SVGID_00000098181501258503978640000003920299039997357726_"  style="overflow:visible;"/>
					</clipPath>
					<path style="clip-path:url(#SVGID_00000164492263063855367560000007256701320360937108_);fill:#FFFFFF;" d="M424.6,574.2
						l-47.2,103.7c69.5,3.1,90.7,2.9,109.4-38.1C516.6,574.2,458.1,569.5,424.6,574.2 M474.5,634.2c-13,28.5-23.3,32.8-76.6,31
						l35.6-78.2c18.4-1.5,37.8,0.7,44.8,10.1C485,606.1,479.9,622.2,474.5,634.2"/>
				</g>
				<g>
					<defs>
						<rect id="SVGID_00000157281252787807648880000005641466715109659272_" x="191.5" y="284.5" width="817" height="631"/>
					</defs>
					<clipPath id="SVGID_00000093179159440936495620000015426414311893515946_">
						<use xlink:href="#SVGID_00000157281252787807648880000005641466715109659272_"  style="overflow:visible;"/>
					</clipPath>
					<path style="clip-path:url(#SVGID_00000093179159440936495620000015426414311893515946_);fill:#FFFFFF;" d="M847.7,565.7
						c0,0,3,14.3,3.4,16.5c5-0.1,18-0.3,18-0.3s4.2,9.1,4.6,10c1.3-0.7,2.7-1.6,4.1-2.5c-14.9-15.7-24.5-43.3-56.5-50.5
						c2.1,16.3,5.9,24.3,9.8,29.8C833.5,568.2,847.7,565.7,847.7,565.7"/>
				</g>
				<g>
					<defs>
						<rect id="SVGID_00000091005001493482051650000014628621539806682776_" x="191.5" y="284.5" width="817" height="631"/>
					</defs>
					<clipPath id="SVGID_00000128482934013586567780000009174576022481173136_">
						<use xlink:href="#SVGID_00000091005001493482051650000014628621539806682776_"  style="overflow:visible;"/>
					</clipPath>
					<path style="clip-path:url(#SVGID_00000128482934013586567780000009174576022481173136_);fill:#FFFFFF;" d="M968,391.2
						c-14.4-11.4-36.7-24.7-69.7-33.9c0,0-40.4-53.8-142.3-53.8c-30.2,0-55.6,2.4-76.2,5.8c9.8,3.1,19.9,6.7,30.2,10.6l-4.3,11.3
						c-127.6-48.6-175.3-20-175.3-20c-7.8,53.8,69,98.9,69,98.9l-6.2,10.5c-2.2-1.3-36.6-21.8-58.2-52.7
						c-26.6,15.7-61.5,40.2-74.5,49.4H359.3L333,475.4h32.5c0,0,11.6,0,6.4,11.5l-71.7,157.3c-0.3,0.6-10.5,20.3-44.7,20.3h-8.6
						l-26.4,57.9h247.7c-5.2,14.1-9.9,33-9.9,55.6c0,82.2,61.7,119,122.8,119c98,0,143-113,143-113h-62.5c0,0-22.8,45.4-65.7,45.4
						c-28.2,0-34.1-19.1-34.1-35.1c0-50.6,47.3-153.7,102.2-153.7c52.5,0,21.3,97,21.3,97l59.3,0l58.8-128.9
						C821.7,619,844.2,632,865,632c30.7,0,43.2-17.2,43.2-17.2l-11.3-6.3l13.7-28.4c-26,22.1-42.5,28.6-42.5,28.6l-6.7-14.5
						l-20.1,0.3l-3-14.7l-12,2.2c-9.3-10.7-19-22.8-19-77.9c0-12.4,2.4-18,11.7-18c4.5,0,17.2,3,24.6,4.9c-5.4-7.7-9-18.1-9-32.2
						c0-34.2,19.7-44.9,33.4-48.2v-11.7c0-3.4,2.7-6.1,6.1-6.1c3.3,0,6.1,2.7,6.1,6.1v22.3c0,0-33.4-2.4-33.4,37.5
						c0,17.6,8.7,41.9,45.1,41.9c10.3,0,19.9-1.6,28.8-4.5c5.6,13.5,1.6,30.1,1.6,30.1s10.6-13.6,18.5-39.2
						c5.4-3.2,10.4-6.9,14.9-10.9c1.3-3.7,2.6-9,2.6-16.3c0-17.2-8.7-31.2-8.7-39.7C949.5,410.7,961.3,404.9,968,391.2 M645.2,533.9
						c0,0,16.3,36.2,34.5,49.9c0,0-22.5,6.7-42.3-46.4L645.2,533.9z M735.7,724h-33.2c0,0,25.5-97-38.7-97
						c-64.2,0-115.7,110.5-115.7,167.2c0,20.8,10,48.5,47.6,48.5c47.3,0,73.4-45.4,73.4-45.4h33.2c0,0-42.4,86.1-121.4,86.1
						c-57.7,0-109.3-34.8-109.3-105.5c0-33.3,11.2-57.8,17.4-69H241.3l14.1-31c44.1,0,57-28.2,57-28.2l72.8-159.6
						c0,0,12.8-28.2-3.8-28.2h-27.5l14.1-31h180.3c0,0,47.4,0,47.4,59.2c0,47.6-48.4,69.7-48.4,69.7s25.2,10.8,29.9,39.4
						c13.2-5.5,40.2-14.8,72.5-14.8c50.6,0,70.3,27.8,88.5,27.8c15.3,0,22.6-15.9,22.6-15.9h33.2L735.7,724z M873.8,380.7
						c-2.9,0.3-5.4-1.7-5.8-4.6l-1.2-10.4c-33.2-9.2-50.5-2.5-50.5-2.5l-4.2-7.4c44.4-13.4,64.1,0.7,64.1,0.7l2.1,18.4
						C878.7,377.8,876.6,380.4,873.8,380.7"/>
				</g>
				<g>
					<defs>
						<rect id="SVGID_00000032615101040554615290000007135230477258593664_" x="191.5" y="284.5" width="817" height="631"/>
					</defs>
					<clipPath id="SVGID_00000116952495788878720950000007286912285409524126_">
						<use xlink:href="#SVGID_00000032615101040554615290000007135230477258593664_"  style="overflow:visible;"/>
					</clipPath>
					<path style="clip-path:url(#SVGID_00000116952495788878720950000007286912285409524126_);fill:#FFFFFF;" d="M830,660.4
						c0-2.8-2.3-5.1-5.1-5.1h-7.2v17.1h3.2v-7h2.3l3.2,7h3.6l-3.4-7.3C828.5,664.5,830,662.6,830,660.4 M824.9,662.2h-4v-3.7h4
						c1,0,1.9,0.8,1.9,1.9C826.8,661.4,825.9,662.2,824.9,662.2"/>
				</g>
				<g>
					<defs>
						<rect id="SVGID_00000130636539583236761370000002286138917291292291_" x="191.5" y="284.5" width="817" height="631"/>
					</defs>
					<clipPath id="SVGID_00000082327158019962908010000016100121633638967450_">
						<use xlink:href="#SVGID_00000130636539583236761370000002286138917291292291_"  style="overflow:visible;"/>
					</clipPath>
					<path style="clip-path:url(#SVGID_00000082327158019962908010000016100121633638967450_);fill:#FFFFFF;" d="M823.8,648.8
						c-8.3,0-15,6.7-15,15c0,8.3,6.8,15,15,15c8.3,0,15-6.7,15-15S832.1,648.8,823.8,648.8 M823.8,675.6c-6.5,0-11.8-5.3-11.8-11.8
						s5.3-11.8,11.8-11.8c6.5,0,11.8,5.3,11.8,11.8C835.6,670.3,830.3,675.6,823.8,675.6"/>
				</g>
			</g>
		</g>
	</g>
</g>
</svg>
