<?xml version="1.0" encoding="UTF-8" standalone="no"?>
<svg
   xmlns:dc="http://purl.org/dc/elements/1.1/"
   xmlns:cc="http://creativecommons.org/ns#"
   xmlns:rdf="http://www.w3.org/1999/02/22-rdf-syntax-ns#"
   xmlns:svg="http://www.w3.org/2000/svg"
   xmlns="http://www.w3.org/2000/svg"
   viewBox="0 0 1917.84 2633.1733"
   height="2633.1733"
   width="1917.84"
   xml:space="preserve"
   id="svg2"
   version="1.1"><metadata
     id="metadata8"><rdf:RDF><cc:Work
         rdf:about=""><dc:format>image/svg+xml</dc:format><dc:type
           rdf:resource="http://purl.org/dc/dcmitype/StillImage" /></cc:Work></rdf:RDF></metadata><defs
     id="defs6" /><g
     transform="matrix(1.3333333,0,0,-1.3333333,0,2633.1733)"
     id="g10"><g
       transform="scale(0.1)"
       id="g12"><path
         id="path14"
         style="fill:#ffffff;fill-opacity:1;fill-rule:nonzero;stroke:none"
         d="M 4736.77,1804.2 C 4470.16,719.203 3527.77,0 2417.99,0 979.598,0 0,1147 0,2387 c 0,1171.8 905.195,2374.6 2405.58,2374.6 1438.39,0 2207.18,-1109.8 2331.19,-1829 H 3509.18 c -130.21,341 -477.4,799.8 -1109.8,799.8 -787.39,0 -1227.58,-688.2 -1227.58,-1339.2 0,-694.4 471.19,-1364 1233.78,-1364 731.6,0 1029.19,613.8 1103.6,775 h 1227.59" /><path
         id="path16"
         style="fill:#ffffff;fill-opacity:1;fill-rule:nonzero;stroke:none"
         d="M 5117.31,4674.8 H 7715.09 V 3645.6 H 6289.1 v -713 H 7671.69 V 1903.4 H 6289.1 V 1116 H 7715.09 V 86.8008 H 5117.31 V 4674.8" /><path
         id="path18"
         style="fill:#ffffff;fill-opacity:1;fill-rule:nonzero;stroke:none"
         d="m 9262.7,1116 h 551.8 c 74.4,0 223.2,0 347.2,55.8 130.2,55.8 235.6,167.4 235.6,384.4 0,198.4 -99.2,297.6 -223.2,347.2 -117.8,49.6 -266.6,49.6 -359.6,49.6 h -551.8 z m 0,1816.6 h 415.4 c 80.6,0 204.59,0 309.99,43.4 105.41,49.6 186.01,142.6 186.01,322.4 0,173.6 -80.6,260.4 -179.8,303.8 -99.2,43.4 -223.2,43.4 -316.2,43.4 H 9262.7 Z M 8090.92,4674.8 H 9777.3 c 471.2,0 849.4,-105.4 1109.8,-310 266.6,-198.4 409.2,-502.2 409.2,-892.8 0,-353.4 -161.2,-713 -533.2,-923.8 737.8,-260.4 756.4,-874.2 756.4,-1066.4 0,-365.8 -142.6,-768.796 -421.6,-998.198 C 10676.3,130.203 10372.5,86.8008 9597.5,86.8008 H 8090.92 V 4674.8" /><path
         id="path20"
         style="fill:#ffffff;fill-opacity:1;fill-rule:nonzero;stroke:none"
         d="M 11854.2,4674.8 H 13026 V 1116 h 1357.8 V 86.8008 H 11854.2 V 4674.8" /><g
         transform="scale(1.21158)"
         id="g22"><path
           id="path24"
           style="fill:#ae8e2d;fill-opacity:1;fill-rule:nonzero;stroke:none"
           d="m 9697.73,11392 c -657.82,441.4 -1356,687 -1972.03,903.7 -399.16,140.5 -776.19,273.1 -1075.81,438.2 -318.38,175.4 -520.3,371.2 -635.43,616.2 -36.84,78.4 -65.04,162.3 -84.75,252.5 472.74,127.6 945.42,203.5 1402.15,223.5 430.18,18.7 840.35,-12.6 1219.1,-93.3 366.3,-78 703.38,-202.4 1003.32,-369.9 l 28.97,-16.4 c 13.7,-7.9 41.27,-23.4 41.27,-23.4 L 9644,13312 c 450.2,-692.3 711.7,-1518.5 711.7,-2405.8 0,-14.7 -0.2,-29.4 -0.2,-44 -201,194 -419.9,370.2 -657.77,529.8 z M 8014.1,7004.56 c -618.49,741.18 -1175.95,1551.07 -1662.06,2408.14 35.73,22.78 71.18,46.11 107.22,68.47 290.78,181.39 590.05,352.04 896.84,512.33 l 115.66,59 57.93,29.5 58.3,28.8 116.86,57.5 117.78,55.8 c 39.32,18.7 78.58,37.6 118.37,55.2 l 119.01,54.3 c 39.72,18.1 79.97,34.8 119.89,52.6 40.02,17.7 80.04,35.6 120.48,52.1 l 121.08,51.1 121.99,49.5 61.16,24.8 61.49,23.9 123.23,48 c 164.91,62.7 331.8,122.1 500.33,181.7 -89.13,-2.4 -178.69,-4.8 -267.83,-11.5 -89.38,-5.1 -178.28,-14.3 -267.66,-22.7 -44.57,-4.8 -88.98,-10.6 -133.55,-15.8 -22.28,-2.7 -44.57,-5.4 -66.85,-8.3 l -66.61,-9.7 c -44.4,-6.4 -88.89,-12.8 -133.29,-20 l -132.91,-22.7 c -44.43,-7.5 -88.48,-16.3 -132.67,-24.9 l -66.28,-13.2 c -22.05,-4.5 -44.27,-8.6 -66.19,-13.7 -87.89,-19.4 -176.27,-38.3 -263.63,-60.7 -175.71,-42.1 -349.23,-92.6 -522.68,-145.2 -345.54,-108.5 -685.9,-237.4 -1018.93,-385.7 -40.43,-18 -80.74,-36.4 -120.94,-55 -523.12,1013.6 -947.81,2083.5 -1258.02,3176.5 1.95,0.8 3.89,1.8 5.85,2.7 300.66,136.4 606.79,252.2 914.02,346.5 23.58,-102.5 56.44,-198.8 98.86,-289.1 298.77,-635.8 1019.1,-889.2 1853.17,-1182.6 602.1,-211.9 1284.55,-451.9 1916.21,-875.8 288.63,-193.6 547.77,-413.4 779.77,-661.4 C 10209,8997.5 9301.55,7691.76 8014.1,7004.56 Z M 5935.96,6486.48 c -810.4,0 -1569.8,218.14 -2222.79,598.88 550.99,676.88 1191.96,1285.7 1902.2,1816.69 l 102.14,76.36 c 34.34,25.07 69.09,49.58 103.6,74.49 l 51.89,37.26 c 17.3,12.41 34.52,24.98 52.16,36.91 l 105.28,72.58 52.62,36.49 53.34,35.37 8.26,5.5 C 6626.32,8429.45 7176.72,7627.38 7786.26,6891.32 7223.39,6631.49 6596.62,6486.48 5935.96,6486.48 Z M 2980.07,7731.29 c 3.46,160.62 15.39,322.03 36.22,484.54 96.74,754.52 365.22,1426.29 602.08,2018.97 328.14,821.1 611.51,1530.1 329.52,2173.6 -37.78,86.2 -85.03,169.5 -142.02,250.2 234.93,151.3 482.13,291.4 739.13,418.5 313.11,-1092.5 738.84,-2162 1261.65,-3176.12 C 5593.23,9794.83 5383.49,9680.25 5177.76,9558.01 4547.21,9183.48 3958.23,8730.09 3430.74,8209.73 3274.86,8056.05 3124.5,7896.37 2980.07,7731.29 Z M 2736.48,7857 c -571.05,599.01 -975.55,1358.19 -1139.35,2203.2 72.03,217.3 167.46,433.2 285.84,645.5 188.61,338.2 434.98,667.6 732.28,979.1 287.93,301.7 619.58,582.7 984.7,836.1 48.94,-68.5 89.2,-139 121.15,-211.9 108.67,-248 123.19,-528.9 45.66,-884 -72.95,-334.2 -221.28,-705.4 -378.32,-1098.3 -242.33,-606.38 -517,-1293.67 -617.75,-2079.37 -16.76,-130.77 -28.06,-260.83 -34.21,-390.33 z m -1220.27,3049.2 c 0,924.7 284.05,1783.1 769.56,2492.7 390.45,-159.6 697.17,-324.5 934.04,-502 81.64,-61.1 154.27,-123.4 218.34,-187.1 -370.75,-259.2 -708.15,-546.1 -1002.02,-854 -311.75,-326.7 -570.62,-673 -769.42,-1029.5 -49.44,-88.7 -95.02,-178 -136.99,-267.8 -8.92,114.7 -13.51,230.7 -13.51,347.7 z m 2609.65,4033.2 c 88.71,-542.3 206.46,-1083.5 351.51,-1619.8 -289.49,-141 -567.33,-298.1 -830.3,-469 -265,277.7 -662.65,524.5 -1211.54,754.2 442.39,573 1022.3,1034.4 1690.33,1334.6 z m 1810.1,386.6 c 0.95,0 1.9,-0.1 2.85,-0.1 -224,-626 -318.21,-1131.4 -284.97,-1544.6 -318.96,-96.2 -636.72,-215 -948.75,-355.1 -142.71,533.4 -258.11,1071.6 -344.22,1610.8 489.28,186.7 1020.24,289 1575.09,289 z m 3380.78,-1572.8 c -224.09,93.9 -462.78,168.3 -714.19,221.8 -399.25,85 -830.4,118.1 -1281.48,98.4 -464.24,-20.2 -943.88,-95.9 -1423.45,-223.1 -4.21,83.3 -2.84,171.2 4.19,264.2 25.43,336.2 122.8,730 297.59,1203.7 1249.48,-73.5 2359.4,-666 3117.34,-1565 z M 5935.96,16300 c -2978.92,0 -5393.804,-2414.9 -5393.804,-5393.8 0,-2978.88 2414.884,-5393.82 5393.804,-5393.82 2978.91,0 5393.84,2414.94 5393.84,5393.82 0,2978.9 -2414.93,5393.8 -5393.84,5393.8" /></g></g></g></svg>