<?xml version="1.0" encoding="utf-8"?>
<!-- Generator: Adobe Illustrator 26.5.0, SVG Export Plug-In . SVG Version: 6.00 Build 0)  -->
<svg version="1.1" id="Forge_FC_Primary" xmlns="http://www.w3.org/2000/svg" xmlns:xlink="http://www.w3.org/1999/xlink" x="0px"
	 y="0px" viewBox="0 0 1080 1080" style="enable-background:new 0 0 1080 1080;" xml:space="preserve">
<style type="text/css">
	.st0{fill:#FFFFFF;}
	.st1{fill:#E04306;}
</style>
<g id="H">
	<g>
		<g>
			<path class="st0" d="M523,271.3c-85,16.2-200.3,21.9-275,5.1l147.5,117.2l-0.1,590.5c18.3-56.2,52.6-119,127.6-166.3v-157
				l107-53.2l-0.2-98.9L523,555.1V271.3z"/>
			<path class="st0" d="M660.3,235.3V832c-57.9,18.8-164.9,124.6-199,228c91.9-84.7,191.4-110.8,285.5-126.2
				c13.8-2.3,27.5-4.3,41-6.2v-55V278.5L831,131C790.4,163.6,704.5,218.9,660.3,235.3z"/>
		</g>
	</g>
</g>
<g id="Sparks">
	<polygon class="st1" points="633.7,221.5 617.5,172.5 709.9,54.2 689.5,173.1 	"/>
	<polygon class="st1" points="596.3,307.9 555.4,258.9 578.4,110.6 627.5,253.3 	"/>
	<polygon class="st1" points="610.7,155.3 592,100 663,20 643.1,113.8 	"/>
</g>
</svg>
