<?xml version="1.0" encoding="utf-8"?>
<!-- Generator: Adobe Illustrator 26.2.1, SVG Export Plug-In . SVG Version: 6.00 Build 0)  -->
<svg version="1.1" id="Layer_1" xmlns="http://www.w3.org/2000/svg" xmlns:xlink="http://www.w3.org/1999/xlink" x="0px" y="0px"
	 viewBox="0 0 56 100" style="enable-background:new 0 0 56 100;" xml:space="preserve">
<style type="text/css">
	.st0{fill:#54565A;}
	.st1{fill:#E04403;}
</style>
<g>
	<g id="H">
		<g>
			<g>
				<path class="st0" d="M26.4,24.2C18.2,25.7,7.2,26.3,0,24.7l14.2,11.3l0,56.8c1.8-5.4,5.1-11.4,12.3-16l0-15.1l10.3-5.1l0-9.5
					l-10.3,4.5L26.4,24.2z"/>
				<path class="st0" d="M39.6,20.7l0,57.4c-5.6,1.8-15.9,12-19.1,21.9c8.8-8.1,18.4-10.7,27.4-12.1c1.3-0.2,2.6-0.4,3.9-0.6V82
					V24.9L56,10.7C52.1,13.8,43.9,19.1,39.6,20.7z"/>
			</g>
		</g>
	</g>
	<g id="Sparks">
		<polygon class="st1" points="37.1,19.4 35.5,14.7 44.4,3.3 42.4,14.7 		"/>
		<polygon class="st1" points="33.5,27.7 29.5,23 31.7,8.7 36.5,22.4 		"/>
		<polygon class="st1" points="34.8,13 33,7.7 39.9,0 38,9 		"/>
	</g>
</g>
</svg>
