<?xml version="1.0" encoding="UTF-8" standalone="no"?>
<!DOCTYPE svg PUBLIC "-//W3C//DTD SVG 1.1//EN" "http://www.w3.org/Graphics/SVG/1.1/DTD/svg11.dtd">
<svg width="100%" height="100%" viewBox="0 0 214 81" version="1.1" xmlns="http://www.w3.org/2000/svg" xmlns:xlink="http://www.w3.org/1999/xlink" xml:space="preserve" xmlns:serif="http://www.serif.com/" style="fill-rule:evenodd;clip-rule:evenodd;stroke-linejoin:round;stroke-miterlimit:2;">
    <path d="M106.94,40.22C106.94,18.022 88.918,0 66.72,0L40.22,0C18.022,0 0,18.022 0,40.22C0,62.418 18.022,80.44 40.22,80.44L66.72,80.44C88.918,80.44 106.94,62.418 106.94,40.22Z" style="fill:rgb(51,51,51);"/>
    <path d="M213.88,40.22C213.88,18.022 195.858,0 173.66,0L147.16,0C124.962,0 106.94,18.022 106.94,40.22C106.94,62.418 124.962,80.44 147.16,80.44L173.66,80.44C195.858,80.44 213.88,62.418 213.88,40.22Z" style="fill:rgb(51,51,51);"/>
    <circle cx="107.61" cy="40.22" r="26.97" style="fill:white;"/>
    <path d="M45.71,23.2C47.935,23.173 49.75,21.335 49.75,19.11C49.75,16.867 47.904,15.02 45.66,15.02C43.416,15.02 41.57,16.867 41.57,19.11C41.57,19.114 41.57,19.117 41.57,19.12C41.586,21.363 43.437,23.2 45.68,23.2C45.69,23.2 45.7,23.2 45.71,23.2ZM56.51,50.36C55.7,50.614 55.086,51.282 54.9,52.11L54.9,52.2C53.669,55.848 50.763,58.695 47.09,59.85C45.509,60.341 43.84,60.481 42.2,60.26C39.777,59.859 37.52,58.768 35.7,57.12L35.51,57C35.33,56.83 35.16,56.65 35,56.47L34.55,56L34.41,55.82C33.417,54.578 32.673,53.155 32.22,51.63C31.702,49.883 31.559,48.046 31.8,46.24C32.299,42.385 34.603,38.989 38,37.1L38.07,37.04C38.97,36.659 39.558,35.771 39.558,34.793C39.558,33.613 38.702,32.594 37.54,32.39C37.072,32.319 36.592,32.396 36.17,32.61C31.168,35.177 27.728,40.039 26.97,45.61C26.598,48.225 26.817,50.89 27.61,53.41C29.666,60.477 36.189,65.372 43.549,65.372C45.144,65.372 46.731,65.143 48.26,64.69C53.61,62.998 57.79,58.762 59.41,53.39C59.55,52.924 59.55,52.426 59.41,51.96C59.127,50.96 58.207,50.265 57.168,50.265C56.945,50.265 56.724,50.297 56.51,50.36Z" style="fill:white;fill-rule:nonzero;"/>
    <g>
        <path d="M75.88,53.74C75.367,52.884 74.252,52.585 73.38,53.07L70.65,54.6L63.74,44.17C63.314,43.4 62.51,42.912 61.63,42.89L48.63,42.89L48.63,38.76L57.63,38.76C58.944,38.618 59.951,37.496 59.951,36.175C59.951,34.854 58.944,33.732 57.63,33.59L48.63,33.59L48.63,28.22C48.63,26.618 47.312,25.3 45.71,25.3C44.108,25.3 42.79,26.618 42.79,28.22L42.79,45.22C42.821,46.718 43.97,47.975 45.46,48.14C45.66,48.155 45.86,48.155 46.06,48.14L61.14,48.14L67.71,58.04C68.02,58.509 68.501,58.84 69.05,58.96C69.184,58.995 69.322,59.016 69.46,59.02L69.52,59.02C69.766,59.029 70.011,58.988 70.24,58.9L70.49,58.9L75.19,56.27C75.777,55.958 76.145,55.345 76.145,54.681C76.145,54.349 76.053,54.023 75.88,53.74ZM180.94,64.45C180.94,64.691 180.741,64.89 180.5,64.89L144.32,64.89C144.079,64.89 143.88,64.691 143.88,64.45L143.88,51.24C143.88,50.999 144.079,50.8 144.32,50.8L180.5,50.8C180.503,50.8 180.507,50.8 180.51,50.8C180.746,50.8 180.94,50.994 180.94,51.23C180.94,51.233 180.94,51.237 180.94,51.24L180.94,64.45M157.43,57.09L161,57.09C161.21,57.085 161.38,56.91 161.38,56.7L161.38,53.13C161.38,52.92 161.21,52.745 161,52.74L157.43,52.74C157.216,52.74 157.04,52.916 157.04,53.13L157.04,56.7C157.04,56.914 157.216,57.09 157.43,57.09M150.65,58.37L147.08,58.37C146.871,58.37 146.7,58.542 146.7,58.75C146.7,58.753 146.7,58.757 146.7,58.76L146.7,62.33C146.7,62.538 146.872,62.71 147.08,62.71L150.65,62.71C150.653,62.71 150.657,62.71 150.66,62.71C150.868,62.71 151.04,62.539 151.04,62.33L151.04,58.76C151.04,58.757 151.04,58.753 151.04,58.75C151.04,58.541 150.869,58.37 150.66,58.37C150.657,58.37 150.653,58.37 150.65,58.37M150.65,57.09L154.22,57.09C154.434,57.09 154.61,56.914 154.61,56.7L154.61,53.13C154.61,52.916 154.434,52.74 154.22,52.74L150.65,52.74C150.436,52.74 150.26,52.916 150.26,53.13L150.26,56.7C150.26,56.914 150.436,57.09 150.65,57.09M164.18,57.09L167.75,57.09C167.964,57.09 168.14,56.914 168.14,56.7L168.14,53.13C168.14,52.916 167.964,52.74 167.75,52.74L164.18,52.74C163.97,52.745 163.8,52.92 163.8,53.13L163.8,56.7C163.8,56.91 163.97,57.085 164.18,57.09M170.95,57.09L174.52,57.09C174.73,57.085 174.9,56.91 174.9,56.7L174.9,53.13C174.9,52.92 174.73,52.745 174.52,52.74L171,52.74C170.791,52.74 170.62,52.912 170.62,53.12C170.62,53.123 170.62,53.127 170.62,53.13L170.62,56.7C170.62,56.703 170.62,56.707 170.62,56.71C170.62,56.918 170.791,57.09 171,57.09C171,57.09 171,57.09 171,57.09M171,58.37L167.43,58.37C167.221,58.37 167.05,58.542 167.05,58.75C167.05,58.753 167.05,58.757 167.05,58.76L167.05,62.33C167.05,62.538 167.222,62.71 167.43,62.71L171,62.71C171.003,62.71 171.007,62.71 171.01,62.71C171.218,62.71 171.39,62.539 171.39,62.33L171.39,58.76C171.39,58.757 171.39,58.753 171.39,58.75C171.39,58.541 171.219,58.37 171.01,58.37C171.007,58.37 171.003,58.37 171,58.37M157.47,58.37L153.9,58.37C153.691,58.37 153.52,58.542 153.52,58.75C153.52,58.753 153.52,58.757 153.52,58.76L153.52,62.33C153.52,62.333 153.52,62.337 153.52,62.34C153.52,62.543 153.687,62.71 153.89,62.71C153.893,62.71 153.897,62.71 153.9,62.71L157.47,62.71C157.473,62.71 157.477,62.71 157.48,62.71C157.688,62.71 157.86,62.539 157.86,62.33L157.86,58.76C157.86,58.757 157.86,58.753 157.86,58.75C157.86,58.541 157.689,58.37 157.48,58.37C157.477,58.37 157.473,58.37 157.47,58.37M177.77,58.37L174.2,58.37C173.991,58.37 173.82,58.542 173.82,58.75C173.82,58.753 173.82,58.757 173.82,58.76L173.82,62.33C173.82,62.538 173.992,62.71 174.2,62.71L177.77,62.71C177.98,62.71 178.155,62.54 178.16,62.33L178.16,58.76C178.16,58.546 177.984,58.37 177.77,58.37M164.24,58.37L160.67,58.37C160.667,58.37 160.663,58.37 160.66,58.37C160.451,58.37 160.28,58.541 160.28,58.75C160.28,58.753 160.28,58.757 160.28,58.76L160.28,62.33C160.28,62.539 160.452,62.71 160.66,62.71C160.663,62.71 160.667,62.71 160.67,62.71L164.24,62.71C164.45,62.71 164.625,62.54 164.63,62.33L164.63,58.76C164.63,58.546 164.454,58.37 164.24,58.37M144.81,48.55C144.809,48.56 144.809,48.571 144.809,48.581C144.809,48.768 144.954,48.925 145.14,48.94L179.78,48.94C179.975,48.919 180.122,48.746 180.11,48.55L180.11,15.94C180.111,15.93 180.111,15.919 180.111,15.909C180.111,15.722 179.966,15.565 179.78,15.55L145.09,15.55C144.904,15.565 144.759,15.722 144.759,15.909C144.759,15.919 144.759,15.93 144.76,15.94L144.81,48.55ZM149.5,42.77L149.5,20.77C149.5,20.767 149.5,20.763 149.5,20.76C149.5,20.593 149.634,20.455 149.8,20.45L175.32,20.45C175.481,20.455 175.611,20.589 175.611,20.75C175.611,20.757 175.61,20.763 175.61,20.77L175.61,42.77C175.61,42.777 175.611,42.783 175.611,42.79C175.611,42.951 175.481,43.085 175.32,43.09L149.75,43.09C149.584,43.085 149.45,42.947 149.45,42.78C149.45,42.777 149.45,42.773 149.45,42.77M204.13,80L204.13,75.58L202.54,75.58L202.54,74.67L206.8,74.67L206.8,75.58L205.21,75.58L205.21,80L204.13,80ZM207.49,80L207.49,74.67L209.11,74.67L210.11,78.34L211.11,74.67L212.73,74.67L212.73,80L211.73,80L211.73,75.82L210.6,80L209.6,80L208.54,75.78L208.54,80L207.49,80ZM118.54,35.11L97.08,23.94C97.08,28.54 97.6,31.5 100.75,33.14L111.53,38.75L118.54,35.11ZM121.35,36.57L114.35,40.21L100.85,47.21C97.78,48.88 97.08,52.5 97.08,56.47L116.57,46.33C120.88,43.98 121.35,41.11 121.35,36.54L121.35,36.57Z" style="fill:rgb(252,252,252);fill-rule:nonzero;"/>
    </g>
    <path d="M204.13,80L204.13,75.58L202.54,75.58L202.54,74.67L206.8,74.67L206.8,75.58L205.21,75.58L205.21,80L204.13,80ZM207.49,80L207.49,74.67L209.11,74.67L210.11,78.34L211.11,74.67L212.73,74.67L212.73,80L211.73,80L211.73,75.82L210.6,80L209.6,80L208.54,75.78L208.54,80L207.49,80ZM118.54,35.11L97.08,23.94C97.08,28.54 97.6,31.5 100.75,33.14L111.53,38.75L118.54,35.11ZM121.35,36.57L114.35,40.21L100.85,47.21C97.78,48.88 97.08,52.5 97.08,56.47L116.57,46.33C120.88,43.98 121.35,41.11 121.35,36.54L121.35,36.57Z" style="fill:rgb(51,51,51);fill-rule:nonzero;"/>
</svg>
