<?xml version="1.0" encoding="utf-8"?>
<!-- Generator: Adobe Illustrator 26.5.0, SVG Export Plug-In . SVG Version: 6.00 Build 0)  -->
<svg version="1.1" id="Layer_1" xmlns="http://www.w3.org/2000/svg" xmlns:xlink="http://www.w3.org/1999/xlink" x="0px" y="0px"
	 viewBox="0 0 432 432" style="enable-background:new 0 0 432 432;" xml:space="preserve">
<style type="text/css">
	.st0{fill:#FFFFFF;}
	.st1{fill:#FFB71B;}
	.st2{fill:#A73439;}
</style>
<path class="st0" d="M93.8,222.7c-12.8,0-28.3,8.7-28.3,18.6c0,3.2,2.1,4.5,5.8,4.5c7.2,0,16.9-4.9,26.5-11.1
	c-0.8-3.9-1.4-7.9-1.8-12C95.3,222.7,94.6,222.7,93.8,222.7 M71.6,240c-0.4-1.6,6.4-10,19.3-11.3c0.1,1,0.3,2,0.5,3
	C82.1,237.3,73.3,241,71.6,240"/>
<path class="st0" d="M386.1,255.2c-6.3-3.3-11.1-6.8-15.2-10.4c3.1-11.7,4.8-24,4.8-36.7c0-78.9-64.2-143.1-143.1-143.1
	c-75.6,0-137.7,58.9-142.8,133.2c-22,3.5-50.2,16.5-50.2,43.2c0,20.5,15.3,29.5,28.4,29.5l-0.1,1.1l-5.1,1
	c-13.5,15.3-4.6,39.3-24,54c-0.6,1.8-1.2,6.6-0.8,8.2c-4.5,3.5-8.8,4.9-9,5c1.5,4.5,10.7,7.3,12.1,7.5c0.1,0.4,0.3,0.9,0.5,1.4
	c-1,4.3-3.8,7-3.8,7c2,2.9,11,3.4,13.3,2.8c0,0-0.6,3.2-1.8,4.5c0,0,8,1.6,13.3-1.7c0,0,0.2,2.8-0.3,3.7c7.2-1.2,13.3-5.1,15.2-7.6
	c0,0,10.3-2.5,11-8.6c1.1-10.4,1.7-18.3,3.2-25.7c3.8,0.4,9.8,0,15.6-3.1c0.6-0.8,7.1-9,17.4-18.4c1.5,1.8,3.1,3.5,4.8,5.2
	c-4.5,14.5,1.8,24.6-10.5,33.6c-0.4,2.3,1.2,6.9,1.2,6.9s-1.1,4.5-3.2,6.9c0,0,2.5,2.9,9.6,2.6c0,0-0.2,4.6-1.3,6.5
	c0,0,5.9,1.7,11.5-0.7c0,0-0.3,2.5-1.1,4.1c0,0,8.2-1.6,13-5.8c0.1,1.2,0.1,3.2-0.2,3.7c5.7-3.8,11.1-9,12.1-13.9
	c0.2-0.1,2.3-1.7,2.5-1.9c0.6-2.2,1.6-8.2,2-15c20.1,10.8,43.1,17,67.6,17c45,0,85.3-20.9,111.5-53.5c3.4,0.6,7.8,0.7,12.1-1
	c0,0-2.8,2.1-3.4,2.4c0,0,10.9,4.4,17.1,0c0,0-0.5,1.6-1,2.2c0,0,10.2,2.5,15.5-3.1c0,0-0.4,1.6-0.7,2.1c0,0,10,0.1,13.4-8.8
	c0,0,6.9-4.6,6.9-14.6C404,259.9,386.1,255.2,386.1,255.2 M392.7,287.6c-1.2,2.3-3.5,5.7-6.4,5.2c0,0,0.5-0.8,0.9-2
	c-0.3,0.2-0.7,0.4-1,0.5c0,0-1.2,0.9-3.1,1.3c-1.4,1.5-3.9,3.2-8,2.4c0,0,1.5-1,2.3-3c-0.7-0.3-1.5-0.7-2.2-1.1c0,0-1.1,0.8-2.8,1
	c-1.1,1.5-3.9,4.2-8.9,2.9c0,0,1.8-1.8,2.3-4.8c-0.6-0.5-1.2-1-1.8-1.6c0,0-2.1,0.5-5,0.5c-1.7,1.7-5.1,4.4-9.8,3.8
	c0,0,2.2-1.9,2.8-4.7c-2-0.6-3.9-1.6-5.5-3.2c-24.7,36.6-66.5,60.6-113.9,60.6c-26.9,0-51.9-7.7-73.1-21.1c0.4,10-1.9,21.7-1.9,21.7
	c-0.3,0.3-1.9,1.3-1.9,1.3c-0.6,1.8-1.7,4.1-3.8,6c0,0,0.2-1.5-0.1-3.2l-1.8,2.9l-2.1,0.6c-0.9,1.4-2.5,3.3-5.5,4.8
	c0,0,0.8-2,0.7-4.4l-2.8,2c-1.2,0-2.7-0.1-2.7-0.1c-1.3,1.4-3.2,2.9-5.5,3.1c0,0,0.9-1.6,1.1-4.1c-1.8-0.7-2.7-1.9-2.7-1.9l-0.1-3.5
	l-0.2-0.1c-1.3,1.1-3.3,2.2-5.8,2.3c0,0,1.8-1.9,2.2-4.9c-1.6-1.6-1.7-3.4-1.7-3.4s8.1-6.1,8.1-17.7c0-9.4,1.9-16,3.3-19.7
	c-3.9-3.8-7.5-7.9-11-12.2c-13.4,11.4-21.7,22-21.7,22c-9,4.2-16.2,0.7-16.2,0.7c-2.5,9.9-3.5,17.6-4.7,32.2c-2.4,2.4-5.9,3.5-8.8,4
	c-0.8,1.6-2.6,3.9-6.2,5.2c0,0,1-1.4,1.2-3.3c-1.7,0.8-3.4,1-5,0.8c-1.1,1.2-3.1,2.6-6.4,2.8c0,0,1.5-1.4,2.2-4.2l-2.1-1.2l-0.6,0.7
	c-2,0-3.6-0.5-4.9-1.2c-1.4,0.9-3.6,1.7-6.7,1.5c0,0,1.7-1.6,3-4.6c-1.6-2.1-2-4.3-2-4.3l1-1l-1.6-2.2c-1.4,0.5-3.7,0.9-6.9-0.4
	c0,0,3.4-0.9,5.2-3.8c-0.5-2-0.6-4.4,0-7.2c19.9-17.1,11.7-38.5,21.7-51.8c6.5-0.9,8.2-2.8,8.2-2.8c-1.2-5.1,2.8-11.5,2.8-11.5
	s-4,1-7.6,1c-14.3,0-23.6-9.8-23.6-23.4c0-30,39.3-37.2,49.9-38.6c2.6-73.6,63-132.5,137.2-132.5c75.9,0,137.4,61.5,137.4,137.4
	c0,13.4-2,26.3-5.5,38.5c4.9,4.9,11,9.7,19.4,14c0,0,14.4,3.4,14.4,16.1C398.2,284.5,392.7,287.6,392.7,287.6"/>
<path class="st0" d="M276.1,307.9c-0.7-1.7-1.7-2.3-3.1-1.7l-1.2,0.5l2,4.9l1.1-0.5C276.1,310.5,276.7,309.4,276.1,307.9"/>
<polygon class="st0" points="295.7,305 290.1,298.6 290,298.6 293.4,306.4 "/>
<path class="st0" d="M220.2,313.3c-1.4-0.2-1.9,0.5-2,2l-1.2,9.9c-0.2,1.5,0.2,2.2,1.5,2.4s1.9-0.5,2-2l1.2-9.9
	C221.9,314.2,221.6,313.5,220.2,313.3"/>
<path class="st0" d="M220.6,97.9c3.1-0.3,5.1-1,4.8-3.5c-0.3-2.8-3.2-2.7-5-2.5l-3.9,0.4l0.6,5.9L220.6,97.9z"/>
<path class="st0" d="M275.9,313.6l-1,0.4l2.3,5.6l1.3-0.5c1.6-0.7,1.9-1.9,1.1-3.7C278.8,313.5,277.8,312.9,275.9,313.6"/>
<path class="st0" d="M338.4,275.5c-2.1-1.3-3.9-3.9-2.9-8.8c0,0-19-6-29.5-17.7c0,0-20.8,0.9-30.3-5.8
	c-10.4,10.9-22.9,16.4-22.9,16.4s-6.1-6.6-18-6.6c-11.3,0-13.8,4.8-26.3,6l2.6,4.7c3.1-0.1,10-0.9,17.9-5.3c0,0,18.3-0.9,21.2,12.2
	c0,0,0,1.7-0.9,4.2c0.8,2.3,1.8,6.7-0.5,10.4c0,0,0-2.9-2.5-5.2c-0.3,0.4-0.7,0.8-1.1,1.2c0.1,0.6,0.1,1.1,0.1,1.8
	c0,0-0.3,0.8-0.9,1.9c1.1,1.9,2.2,5.3-0.1,9.5c0,0-0.6-2.8-3.1-5.2c-0.3,0.3-0.7,0.6-1,1l0.1,0.4c0,0-0.4,1.2-1.5,2.8
	c0.9,1.7,1.7,4.6,0,8.3c0,0-1.1-3.4-3.4-5c-0.5,0.3-1,0.6-1.5,0.9c-0.3,0.8-1,1.9-2.4,3c0.5,2.2,0.5,5.1-1.7,7.3c0,0,0-2.9-2.3-5.2
	c-1.7,0.6-3.7,1.1-6.3,1.5l-6.6-2.7c0,0-15.7,4.4-22.9-2.4c-8.3,13.5-20.2,21.5-20.2,21.5c-2.3,0.1-4.4,0-6.1-0.1
	c19.6,11.7,42.6,18.5,67.1,18.5c44.3,0,83.4-22,107.1-55.7C338.1,281,338.1,277.8,338.4,275.5 M207.3,311.4l-5.8-1.7l-1.4,4.8
	l4.3,1.3l-0.8,2.8l-4.3-1.3l-2.5,8.3l-3.2-1l5.6-18.8l9,2.7L207.3,311.4z M225.1,316l-1.2,10c-0.3,2.8-2.2,4.8-5.7,4.4
	s-4.9-2.8-4.5-5.6l1.2-10c0.3-2.8,2.2-4.8,5.7-4.4C224.1,310.8,225.4,313.3,225.1,316 M241.1,331c-3.5,0.2-5.3-1.9-5.5-4.7
	l-0.7-10.1c-0.2-2.8,1.3-5.1,4.8-5.4s5.3,1.9,5.5,4.6l0.7,10.1C246,328.4,244.6,330.7,241.1,331 M259.2,328.1l-3.9-16.2l-3.2,0.8
	l-0.7-2.9l9.6-2.3l0.7,2.9l-3.2,0.8l3.9,16.2L259.2,328.1z M280.1,321.4l-4.9,2l-7.6-18.1l4.6-1.9c3.3-1.4,5.5-0.3,6.8,2.8
	c0.6,1.5,0.7,3.5-0.6,4.7c1.9,0,3.3,0.9,4.3,3.2C284,317.1,283.6,320,280.1,321.4 M300.5,310.5l-2.8-3.4l-3.1,2l1.8,4l-2.8,1.8
	l-7.5-18.5l3.5-2.2l13.5,14.6L300.5,310.5z M311.4,302.5l-13-14.7l2.5-2.2L312,298l4-3.5l2,2.2L311.4,302.5z M323.8,290.5
	l-14.9-12.7l2.2-2.6l12.7,10.8l3.4-4l2.2,1.9L323.8,290.5z"/>
<path class="st0" d="M239.9,313.8c-1.4,0.1-1.7,0.8-1.6,2.3l0.7,9.9c0.1,1.5,0.6,2.1,1.9,2c1.4-0.1,1.7-0.8,1.6-2.3l-0.7-9.9
	C241.7,314.4,241.2,313.7,239.9,313.8"/>
<path class="st0" d="M141.2,301.9c1.2-0.5,2.6-1.3,4.1-2.7c0,0-1.5-11.6,3.1-21.8c-6.6,3.7-12.8,7.9-18.2,12.2
	C133.6,294,137.3,298,141.2,301.9"/>
<path class="st0" d="M188.1,142.3c0,0,21-13.6,46.5-9.9c-0.7-2-1.7-3.7-1.7-3.7c12.1,0.7,21.1,8.1,25.5,12.4
	c4.8-0.4,11.9,2.5,16.2,4.5c0,0,17.7-5.8,20.4-2.1c2.5,3.5,1.1,17.9-4.6,24.3l1.2,0.8c2.5,0.2,5,0.5,7.2,1l-5.4,0.2
	c8.6,6,21,17.6,29.2,38.3c20.5,6.4,25.5,19.6,36.7,33c2.7-10.5,4.2-21.6,4.2-33c0-72.3-58.6-131-131-131
	c-71.7,0-129.8,57.6-130.9,128.9c3.8,0.8,8,2.7,8,7.3c0,5.6-3.2,7.9-7.3,8.8c0.3,2.9,0.7,5.8,1.2,8.7c7.8-5.4,15.1-11.3,20.4-15.4
	c13.7-18.7,25.1-48,58.2-69.6C182.6,144.3,182.6,141.9,188.1,142.3 M344.3,154.3c1.7,3.5,2.1,7.2,1.2,10.4l-7.4-2.1
	c1-1.5,0.5-3.9-0.1-5.3c-0.7-1.4-2.4-3.3-4.2-2.4c-1.7,0.8-1.4,2.8-0.9,5.9c0.7,4.1,1.6,9.1-4.2,12c-5.6,2.8-11.3,0.3-14.5-6.2
	c-1.8-3.7-2.3-7.6-1-11.4l7.6,2.2c-1.1,2-1.1,4.6-0.2,6.5c0.7,1.5,2.5,3.4,4.3,2.5c1.8-0.9,1.5-2.9,1-6.3c-0.6-4.1-1.4-9.2,4-11.9
	C336.2,145,341.8,149.1,344.3,154.3 M319.8,120.1l15.6,19l-5.2,4.3l-5.5-6.6l-18.6,15.4l-4.7-5.8l18.6-15.4l-5.5-6.6L319.8,120.1z
	 M308,110.6l-7.5,32.8l-6.8-5l1.7-6.7l-8.9-6.6l-5.8,3.6l-6.6-4.9l29-17L308,110.6z M254.3,101.8c3.2-9,11.4-13.6,21.2-10.1
	c6.9,2.4,8.4,8,8.4,8l-6.9,2.6c0,0-0.6-2.9-4.5-4.3c-4.8-1.7-9.1,1.4-10.8,6.2c-1.7,4.9,0.5,9.8,4.8,11.3c3.7,1.3,6.8-1.3,6.8-1.3
	l4.4,6.4c0,0-5,4.4-13.1,1.6C256.2,119.3,251.1,110.8,254.3,101.8 M238,98.4l11.2,1.2l-0.6,5.9l-11.2-1.2L238,98.4z M220.4,85.4
	c7.6-0.8,12,2,12.7,8.2c0.8,7.2-5.3,9.1-5.3,9.1l9.1,12l-8.9,1l-7.5-11.3l-2.6,0.3l1.3,11.9l-7.4,0.8l-3.3-30.7L220.4,85.4z
	 M195.3,90.1l2.7,6.4l-12.7,5.3l1.8,4.4l12-5l2.7,6.4l-12,5l2,4.9l13.4-5.6l2.7,6.4l-20.3,8.4l-11.8-28.5L195.3,90.1z M147.1,172.9
	l-22-10.1l-3.6,7.8l-6.1-2.8l10.2-22.4l6.1,2.8l-3.6,7.8l22,10.1L147.1,172.9z M155.3,157.4l-25.1-18l4.3-6.1l25.1,18L155.3,157.4z
	 M174.4,137.3c-7.9,6.8-17.5,5.7-23.1-0.9c-6.7-7.8-6-16.9,2.1-23.8c6.3-5.4,12-4.6,12-4.6l-0.3,7.8c0,0-3.7-0.9-7.6,2.5
	c-5.1,4.3-3.2,9.9-0.6,12.9c4.1,4.9,9.6,3.8,12.7,1.1c2.7-2.3,3.6-4.8,3.6-4.8l-2.7-3.2l-4.1,3.5l-4.5-5.3l9.6-8.2l10.6,12.5
	C182,126.9,180,132.5,174.4,137.3"/>
<polygon class="st0" points="299.3,117 292.3,121.4 297.2,125 "/>
<path class="st0" d="M269.1,158.9l-5.1-0.2l-3.6,1.6c0,0-0.1-1.8-2-1.8c-1.7,0-1.3,1.9,0.3,2.6c1.2,0.6,2.5,1.2,3.7,2.1
	C265.4,162.3,268.1,160.6,269.1,158.9"/>
<path class="st0" d="M288.8,148c-9.2,4.9-13.1,11.7-13.1,11.7c6.6-5,8.9-4.8,8.9-4.8c0.5,2.8-0.2,8.9-0.2,8.9
	C290.2,157.8,288.8,148,288.8,148"/>
<path class="st0" d="M209,158.9c1,1.7,3.6,3.3,6.5,4.2c1.4-0.8,2.7-1.5,3.8-2c1.6-0.3,2.3-2.6,0.4-2.6c-1.5,0-2.1,1.3-2,1.9
	l-3.6-1.6L209,158.9z"/>
<path class="st0" d="M216.4,149.9c-2,0.8-9,4.7-10.5,9.1l9.7-6.2l12.2,5.3l8.5-1.7C236.3,152.3,221.2,148,216.4,149.9 M227.7,156.1
	l-6.8-4.9l11,2.8L227.7,156.1z"/>
<path class="st0" d="M261.8,149.9c-4.9-1.9-19.9,2.4-19.9,6.5l8.5,1.7l12.2-5.3l9.7,6.2C270.8,154.6,263.8,150.8,261.8,149.9
	 M250.5,156.1l-4.2-2.1l11-2.8L250.5,156.1z"/>
<path class="st0" d="M278.9,174.5c3.6-0.6,6.6-0.6,6.6-0.6c-0.5-0.9-1.3-2.1-2.1-3.3c-5.1,0.5-10.6,1.2-14.6,2.3
	c0.2,2.7-0.5,5.9-2.7,9.6c0,0,2.4,2.5,2.6,5.3c0,0-12,6.5-6.6,18.7c0,0-4.6-0.9-6-0.8c0,0-0.1,7,0.4,9.4c0.5,2.4,3.6,16.9-7.3,19.7
	c-1.6,0.4-2.5-0.3-3.5-0.6c-0.9-0.3-4-1.2-6.7-1.2s-5.8,0.9-6.7,1.2c-0.9,0.3-1.9,1-3.5,0.6c-10.9-2.8-7.7-19.2-7.2-21.6
	c-3.2-1.7-11.5,0.6-11.5,0.6c0.6-6.3,2-11.9,2-11.9c-6.3,1.2-10.4,2.4-10.4,2.4c1.5-6.2,2.2-9,2.2-9c-7.4,1.9-10.1,4.2-10.1,4.2
	c3.1-11.5,10.5-18.1,10.5-18.1c-1.1-3.4-0.4-6.6,1.2-9.3c-3.4-0.6-7.2-1.1-10.9-1.5c-0.8,1.2-1.5,2.4-2.1,3.3c0,0,4.7-0.6,8,0.6
	c0,0-11.2,9.4-12.3,32.2c0,0,4.3-3.2,9.9-4.3c0,0-2.2,6-1.7,8.1c0,0,7.4-2.8,11.5-3.4c0,0-2.7,7.3-1.1,11.6c0,0,6.3-2.2,11-1.6
	c0,0-2.8,16.9,4.5,19.6c3.4,1.4,8.8,3.4,16.6,3.4c7.8,0,13.8-2.1,16.6-3.4c7.8-3.5,4.5-19.6,4.5-19.6c8-0.6,12.4,1.6,12.4,1.6
	c1.6-4.2-1-11.6-1-11.6c3.1,0.1,9.2,1.7,9.2,1.7c-0.2-1.7-1.4-4.6-1.4-4.6c6.7,0,11.6,2.8,11.6,2.8
	C291.6,193.5,278.9,174.5,278.9,174.5 M275.5,197.1c0,0,1.1,4.1,1.1,5.8c0,0-5-1-8-0.8c0.6,2.5,0.2,11.1,0.2,11.1
	c-0.4-7.2-4.5-14.7-4.5-14.7c1.7-0.7,6.4-0.2,6.4-0.2c0.2-1.9-1.4-6.5-1.4-6.5c3.8-0.5,5.8-0.2,5.8-0.2c0.2-1.3-0.9-9.7-3.3-14.5
	c8,6.4,12.1,20.9,12.1,20.9C281.8,197.3,278.2,197.1,275.5,197.1"/>
<path class="st0" d="M262.5,168.6c-0.2,0.1-0.4,0.1-0.5,0.2l-11.9,1.1c0,0,3.8-1.8,9.6-3.4c-1.5-0.9-3.3-1.6-4.8-2.2
	c0,0-11,4.5-13.6,8.1l2.3,5.2l16.3,3c1.8-1.8,2.9-3.4,3.6-4.8l-15.8-0.4c0,0,7-2.2,16.4-4.2C263.8,170.2,263.3,169.4,262.5,168.6"/>
<path class="st0" d="M218.5,180.6l16.3-3l2.3-5.2c-2.6-3.6-13.6-8.1-13.6-8.1c-1.6,0.6-3.3,1.3-4.9,2.2c5.7,1.6,9.4,3.4,9.4,3.4
	l-11.9-1.1c-0.1,0-0.2-0.1-0.3-0.1c-0.7,0.7-1.2,1.6-1.5,2.5c9.2,1.9,16,4.1,16,4.1l-15.5,0.4C215.6,177.2,216.7,178.8,218.5,180.6"
	/>
<path class="st0" d="M258.4,184c0,0-3.4-2.7-7.1-2c0,0,4.9,9.5,0.4,17.1C251.7,199,258.9,196,258.4,184"/>
<path class="st0" d="M226.3,199c-4.5-7.6,0.4-17.1,0.4-17.1c-3.6-0.7-7.1,2-7.1,2C219.1,196,226.3,199,226.3,199"/>
<path class="st0" d="M233.4,228.4c0,0,2.1,1.1,5.6,1.1s5.6-1.1,5.6-1.1l3.8,1.1c6.1-5.8,3.7-12.3,3.7-12.3c-2.1,5.9-7.4,9.1-7.4,9.1
	l-2.1-1.4l-2,1.4l-1.6-1.4l-1.6,1.4l-2-1.4l-2.1,1.4c0,0-5.4-3.2-7.4-9.1c0,0-2.4,6.5,3.7,12.3L233.4,228.4z"/>
<polygon class="st0" points="239,165.4 248.4,162.8 229.6,162.8 "/>
<path class="st0" d="M230.4,181.3c0,0-2.6,2.2,0.6,5.3l2.8-1.2l1.7,1l1.8-1l1.7,1l1.7-1l1.8,1l1.7-1l2.8,1.2
	c3.2-3.1,0.6-5.3,0.6-5.3l-3.6,1.9h-10L230.4,181.3z"/>
<path class="st0" d="M243.6,271.3c0,0-3.6-7.8-13.9-7.8c-1,17-24.6,25.2-24.6,25.2s-11.1,1.1-13.8-6.9c0.5,6.7,4.5,15,22.5,12.6
	c0,0,4.6,2.6,5.6,3.9c0,0,6,0,8.3-5.1c0,0-2.1-4.8-5.9-6.8c0,0,5.6,0.6,9.8,5.6c1.1-1.1,2-2.6,2.5-4.6c0,0,1-4-6-8.7
	c0,0,5.2,1,8.9,5c1.1-1.2,2.2-2.8,2.9-4.2c0,0-0.8-5-6.4-8.5c0,0,4.9,1.3,8.4,4.6C242.6,274.5,243.5,273.1,243.6,271.3"/>
<path class="st0" d="M126.9,261c1.6,2,3.3,3.6,4.9,5c7.4-6.1,13.8-10.5,17.8-13.1c-1.3-3.7-2.8-6.2-4.2-7.8
	C135.1,253,128.7,259.2,126.9,261"/>
<path class="st0" d="M105.2,293.6c0.1,0,0.1,0.1,0.2,0.1c6.5-8.9,13.7-16.4,20.5-22.7c-1.4-1.6-2.6-3.3-3.5-5
	C111.6,278.1,106.2,291,105.2,293.6"/>
<path class="st0" d="M51.5,329.9c-0.9,0.9-1.8,1.8-2.8,2.7c0,0-0.8,4.6,1.8,7.9c1.3-1.5,2-2.3,2-2.3c0.6,3.9-1.5,6.6-1.5,6.6
	c1.7,3.4,5.6,3.8,5.6,3.8c2.6-1.8,4.9-6.2,4.9-6.2c-0.1,2.4-0.7,4.5-1.5,6.2c3,2.7,6.8,1.8,6.8,1.8c2.3-1.5,3.7-5.6,3.7-5.6
	c0.4,1,0.4,2.5,0.3,3.9c2.9-0.5,5-2.1,5-2.1c0.8-2.1,1.2-4.4,1.5-6.7C62,342,53.5,332.5,51.5,329.9"/>
<path class="st0" d="M386.3,267.6c0.7,2.3-1,3.3-6.1,3.3c-10.4,0-26-6.6-31.9-12.9c-12.2-4.4-20.6-9.5-26.1-13.6
	c-0.9,2.1-1.3,3.6-1.3,3.6c-0.1-1.6-0.2-3.2-0.1-4.6c-4.1-3.2-6.4-5.8-7.3-7c-0.9,3.6-0.9,7.3-0.6,10.1c5.7,5,17.5,14.1,29.6,16
	c0,0-2.9,6.9,8.4,11.2c0,0,1.5,3.6,3.7,6.8c0,0,4.7,3.7,10.1,1.7c0,0,4.2-5.2-0.4-9.8c0,0,6,3,3.7,10.6c0,0,1.9,3.6,7.5,1.8
	c0,0,2.7-6.4-0.2-10.8c0,0,5.6,4,3.2,11.5c0,0,3.1,1.9,6.1,0.4c0,0,3.6-5.7,0.6-10c0,0,3.4,2.5,2.8,7.2
	C392.8,279,393.2,272.8,386.3,267.6"/>
<path class="st0" d="M291.9,233.5c-3.1-0.6-5.9-2.2-7.1-2.9c-0.9,1.8-1.9,3.5-3,5.1c2,1.4,5.1,3.1,9.2,4.6
	C291,238.2,291.3,235.8,291.9,233.5"/>
<path class="st0" d="M299.3,242.5c2.3,0.4,4.7,0.6,7.3,0.6c0.7-3.1,2-5.6,3.5-7.4c-5.3,0-9.9-0.6-11.4-0.9
	C298.5,237.2,298.7,239.7,299.3,242.5"/>
<path class="st1" d="M195.9,168.6c3.7,0.2,7.5,0.7,11.1,1.3c0.9-1.1,1.9-2.1,3-3c-3.9-1-8.2-1.8-11.4-2.3
	C197.8,165.9,196.8,167.3,195.9,168.6"/>
<path class="st1" d="M279.4,164.6c-3.5,0.6-8.4,1.4-12.7,2.6c0.7,0.9,1.2,2,1.6,3.1c4.4-0.8,9.2-1.4,13.9-1.7
	C281.2,167.3,280.3,165.9,279.4,164.6"/>
<path class="st1" d="M202.3,159.6c0,0-1.3,1.7-3,4.1c4.6,0,9.1,0.6,13.1,1.4c1-0.7,2-1.4,3.1-1.9c-2.9-0.9-5.6-2.5-6.5-4.2l-3.1,0.1
	c1.5-4.4,8.5-8.3,10.5-9.1c4.9-1.9,19.9,2.4,19.9,6.5l-4.8,3.4h15.1l-4.8-3.4c0-4.1,15-8.4,19.9-6.5c2,0.8,9,4.7,10.5,9.1l-3.2-0.1
	c-1,1.7-3.7,3.4-6.7,4.3c0.9,0.6,1.7,1.3,2.5,2c4.2-0.9,8.9-1.5,13.8-1.5c-1.7-2.3-3-4.1-3-4.1s3.9-6.8,13.1-11.7
	c-6,0.6-16.6,6.3-16.6,6.3c-4.4-4.4-10-6.9-10-6.9c-8.9-2.8-23.3,3.2-23.3,3.2s-14.4-6-23.3-3.2c0,0-6.7,3.3-11.3,8.3l-0.6-3.3
	c-3.7-1.8-8.2-3.3-12.1-3.7C191.7,148.7,197.5,152.2,202.3,159.6"/>
<path class="st1" d="M108.3,235.2c-0.1-1.1-0.5-1.9-1.1-2.4c-3.7,2.6-7,4.8-10.1,6.6c1.8,1.7,2.4,3.4,2.6,4.8
	C102.1,241.9,105,238.9,108.3,235.2"/>
<path class="st1" d="M88.6,244.1c-1.3,0.6-2.5,1.2-3.7,1.7c2.2,2.6,2.9,5.2,3,7.1c1.2-0.8,2.4-1.6,3.7-2.4
	C91.6,247.4,89.9,245.3,88.6,244.1"/>
<path class="st1" d="M92.2,218.6c-1.1-3.7,0.8-7.4,2-9.2c-3.1,0.3-5.7,0.9-5.7,0.9c0.3-0.6,1.9-2.2,1.9-2.2
	c-3.5,0.6-6.7,1.4-9.6,2.3c-0.6,2.3-1.2,6.4,0.4,10.4C85.5,219.3,89.6,218.8,92.2,218.6"/>
<path class="st1" d="M63,234.4c0,0,2.7-5.9,11.4-10.9c-1.7-2-3.6-5.4-2.8-9.7c-2.7,1.3-5.1,2.7-7.1,4.1c0,2.3,0.3,5.4,2.2,7.4
	c0,0-3.3,1-6.6-3.9c-2.1,1.9-3.9,3.9-5.2,5.9C55.9,229.5,58.2,233.3,63,234.4"/>
<path class="st1" d="M62.3,246.5c-1.2-1.6-1.6-3.5-1.4-5.5c-2.6,0.1-6.8-0.6-10-5.1c-2,7.1,1,13.4,1,13.4
	C54.3,249.7,58.8,249.8,62.3,246.5"/>
<path class="st1" d="M66.7,249.2c-1.2,1.9-3.7,5-9.2,7c0,0,4.4,3.7,11.8,3.1c1.4-2,3.2-5.1,2.7-7c0,0,3,2.4,2.8,6.3
	c2.4-0.5,4.7-1.2,6.9-2.1c0.8-4.3-1.3-7.3-2.6-8.7C72.9,249.9,69,249.7,66.7,249.2"/>
<path class="st1" d="M230,142.8c-0.6-0.9-1.4-1.4-2.3-2c0,0,9.5-0.2,14.7,3.4c1.9-0.5,4.3-1.1,6.9-1.6c-2.8-3.2-8.2-5.1-8.2-5.1
	l0.8,2.6c-14.4-6.5-33.5-1.8-45.2,3.8c3.7,0.9,6.7,1.9,6.7,1.9C212.8,141,218.6,139.6,230,142.8"/>
<path class="st1" d="M114.2,270.7c-1.6-7.7-12.1-10.5-15.6-18.9c-1,0.8-6.8,4.3-10,6.9c3.2,1.6,9,5.8,8.3,13.9c0,0-4.7-8.6-14.1-7.8
	c-2.9,4.1-4.7,9.3-3.7,15.9c0,0-7.5,3-9.2,1.9c0,0-1.9,3.3-3.8,9.4c1.4,6.7,6.6,12.5,6.6,12.5c-4.4-1.1-6.9-3.4-8.3-5.6
	c-0.2,1.1-0.5,2.4-0.6,3.6c3.3,5.9,10.1,9.2,10.1,9.2c-6.1,1.7-9.7-0.2-11.7-2.2c-1.7,5.9-5,14.1-10.6,20.2
	c2.1,2.7,10.5,12.1,25.9,10c0.5-3.5,0.6-7,1.2-9.8c-10.8-0.6-12.5-11.3-12.5-11.3c5.9,5.7,11,5.7,13.6,5.2c0,0,1.6-7.9,4.1-13.9
	c0,0-4.8-4.8-5.2-12.2c4.4,7.8,11.8,11,16.7,12.2c0.4-0.8,0.8-1.6,1.2-2.4c-7.8-4.7-8.8-13.1-8.8-13.1c3.2,4.5,7.4,7.1,11.3,8.6
	c0.5-0.8,0.9-1.5,1.4-2.3c-9.6-9.8-5.1-22.1-15.4-27.2c13.5,1.5,13.6,15.7,20.1,19.9c1-2.6,6.4-15.5,17.2-27.6
	c-5-9.3-3.2-19.1-3.2-19.1c2,5.9,4.8,10.5,7.7,14c1.8-1.8,8.2-8,18.5-15.9c-2.9-3.4-5.4-3.3-5.4-3.3c0.3-22.6,11.6-41,11.6-41
	c-1,0.2-3.5,1-3.5,1c5-15.8,17.2-23.1,17.2-23.1C158.2,185.1,155,195,155,195c1.4-0.6,6.8-1.9,6.8-1.9c-4.3,5.5-7.4,12.6-9.6,19.4
	c4-3,16.5-11.2,24.9-7.2c0,0-16.9,2.8-28.7,22.1c-0.5,2.6-0.9,4.8-1.1,6.6c2.6-4.2,10.8-15.6,22.4-13.9c0,0-13.6,2.2-18.5,20.6
	c4.1,4.7,4.1,10.3,7.9,15c1.1-2.6,6-12.7,17.6-12.3c0,0-10.8,5.1-11.2,19.4c0,0,5,7.1,11,10.4c1.1-3.1,3.9-8.2,10.8-9.5
	c0,0-5.6,4.3-4.7,13.5c3.5,2.1,6.2,3.4,7.1,3.8c0.6-2.1,1.4-4.4,2.4-6.9c0,0-1,3.5-0.7,7.5c2.7,8,13.8,6.9,13.8,6.9
	s23.7-8.2,24.6-25.2c0,0-7.1,5.3-19,4.8c0,0-5.5,1.5-8.1,3.5c0,0,0.9-2.1,2.5-4.3c-1.4-4.5-5.1-11.7-8.6-18c-9.9-1.1-17.9,9-17.9,9
	c2.1-10.4,10.2-14.1,14.4-15.3c-2.2-3.8-3.7-6.4-3.7-6.4c0.8-1.8,1.3-3.8,1.7-5.8c-12.8-6.8-28,6-28,6c6.6-14.6,21.8-15.2,28.4-14.7
	c-0.1-4.1-1.2-9.8-1.2-9.8c-5.9,2.5-10.4,5.7-10.4,5.7c-0.3-11.1,2-20.5,4.6-27.4c-6.7-2.1-15.4,0.7-15.4,0.7
	c8.4-4.8,14.2-6.2,17.9-6.4c2.1-4.4,3.9-6.9,3.9-6.9c-3.4-0.2-9.3,0.5-9.3,0.5c1.4-3.5,4.6-7.1,6.3-8.8c-4.9-0.3-8.4-0.4-8.4-0.4
	c2.8-0.7,5.9-1,9.1-1.1c-3.7-3.5-5.7-10.2-6.3-15.9c-2,1.4-3.9,2.9-5.9,4.6c3.8,5,2.6,8.2,2.6,8.2c-1.2-3.1-4.3-4.5-6.3-5.1
	c-1.4,1.2-2.8,2.6-4.3,3.9c10,6.4,5.1,17,5.1,17c-1.7-7.8-7.4-10.3-11-11.1c-5.3,5.7-10.7,12.2-16.2,19.8
	c-4.1,10.8-5.1,24.6-5.1,24.6c-2.1-4.9-2.2-9.8-1.9-13.2c-1.7,2.8-3.6,5.9-5.7,9.2c-0.5,8.9,3.9,18.3,3.9,18.3
	c-5.6-3.1-7.9-7.5-8.8-10.8c-1.5,2.2-3.1,4.5-4.8,6.8C127,241,134.4,250,134.4,250c-8.8-4.8-13.4-12.2-15.8-18.2
	c-4.1,5.2-8.5,10.1-13.1,14.3C106.8,255.9,117,262.6,114.2,270.7"/>
<path class="st1" d="M298,218.2c0,0-6.1-4.4-12.7-6.9c0,0,1.4,4.7,1.8,6.9c0,0-2.9-1.9-6.7-2.8c0,0,1.6,5.9,0,11.9
	c0,0-3.6-1.5-10-2.6c-0.8,8.2-5.9,15.7-11.1,21.2c12.9-10.9,15.3-16.2,15.3-16.2s0.4,2.8-0.8,6.8c8.5-6.9,13.9-13.7,13.9-13.7
	c-0.8,2.8-1.9,5.4-3.1,7.8c1.2,0.7,4,2.3,7.1,2.9c1.7-6.7,5.9-13.1,13.8-15c0,0-6.5,5.9-7,16.3c1.6,0.2,6.1,0.9,11.4,0.9
	c2.6-3.4,5.6-4.7,5.6-4.7c-1,1.7-1.8,3.5-2.2,5.3c0.9,1.1,3.2,3.7,7.3,7c0.6-12.7,8.5-19.2,12.7-21.7c-3.1-2.1-6.3-3.9-9.7-5.2
	c-8.5,2.4-14.1,11.6-14.1,11.6c0.8-9.5,5-13.9,8-15.9c-1.4-3.5-4.3-10-9.1-16.9c-0.6,12.7-5.2,15.3-5.2,15.3
	c2-10.6-1.3-20.8-3.2-25.5c-2.2-2.3-4.7-4.4-7.5-6.4c-1.5-0.2-3.5-0.3-5.1-0.1C287.7,178.5,299.4,194.8,298,218.2"/>
<path class="st1" d="M322.2,244.4c5.5,4.1,13.9,9.1,26.1,13.6c5.9,6.2,21.6,12.9,31.9,12.9c5,0,6.7-1,6.1-3.3
	c-4.1-3.1-10.8-5.9-20.5-7.7c0,0,1.8-0.9,5.4-1c-12.9-8-15.6-14.9-20.9-21.1c-7.3,0.3-14.7,7.5-14.7,7.5c1.9-8.2,7.6-11.3,10.7-12.5
	c-1.3-1.5-2.7-2.9-4.2-4.4C330.4,228.9,324.5,238.9,322.2,244.4"/>
<path class="st2" d="M234,220c1.1,0.4,2.3,0.5,5,0.5c2.7,0,3.9-0.1,5-0.5c2-0.6,4.8-9.3,1.5-14.8c-3.4-5.7,0.9-14.4,0.9-14.4
	c-6.8-2.5-7.4,8.6-7.5,11.8c-0.1-3.2-0.7-14.4-7.5-11.8c0,0,4.4,8.7,0.9,14.4C229.1,210.7,232,219.4,234,220"/>
<path d="M45.7,341.6l1.6,2.2l-1,1c0,0,0.5,2.1,2,4.3c-1.3,3-3,4.6-3,4.6c3.2,0.2,5.3-0.6,6.7-1.5c1.3,0.7,2.9,1.1,4.9,1.2l0.6-0.7
	l2.1,1.2c-0.7,2.8-2.2,4.2-2.2,4.2c3.3-0.2,5.3-1.6,6.4-2.8c1.6,0.2,3.3,0,5-0.8c-0.2,1.9-1.2,3.3-1.2,3.3c3.6-1.3,5.4-3.7,6.2-5.2
	c2.9-0.5,6.4-1.6,8.8-4c1.2-14.6,2.3-22.3,4.7-32.2c0,0,7.2,3.4,16.2-0.7c0,0,8.3-10.6,21.7-22c3.4,4.3,7.1,8.4,11,12.2
	c-1.4,3.7-3.3,10.3-3.3,19.7c0,11.6-8.1,17.7-8.1,17.7s0,1.7,1.7,3.4c-0.4,3-2.2,4.9-2.2,4.9c2.5,0,4.4-1.2,5.8-2.3l0.2,0.1l0.1,3.5
	c0,0,0.9,1.2,2.7,1.9c-0.1,2.5-1.1,4.1-1.1,4.1c2.3-0.2,4.3-1.8,5.5-3.1c0,0,1.4,0.1,2.7,0.1l2.8-2c0.2,2.4-0.7,4.4-0.7,4.4
	c3.1-1.5,4.7-3.4,5.5-4.8l2.1-0.6l1.8-2.9c0.3,1.7,0.1,3.2,0.1,3.2c2.1-2,3.1-4.2,3.8-6c0,0,1.6-1,1.9-1.3c0,0,2.2-11.7,1.9-21.7
	c21.2,13.3,46.2,21.1,73.1,21.1c47.5,0,89.3-24.1,113.9-60.6c1.6,1.5,3.5,2.5,5.5,3.2c-0.6,2.8-2.8,4.7-2.8,4.7
	c4.7,0.7,8.1-2,9.8-3.8c2.9,0,5-0.5,5-0.5c0.6,0.6,1.2,1.2,1.8,1.6c-0.5,3-2.3,4.8-2.3,4.8c5,1.3,7.8-1.4,8.9-2.9
	c1.7-0.2,2.8-1,2.8-1c0.8,0.5,1.5,0.9,2.2,1.1c-0.8,2-2.3,3-2.3,3c4.1,0.9,6.6-0.9,8-2.4c1.9-0.4,3.1-1.3,3.1-1.3
	c0.3-0.1,0.6-0.2,1-0.5c-0.5,1.2-0.9,2-0.9,2c2.9,0.5,5.1-2.9,6.4-5.2c0,0,5.5-3.1,5.5-11c0-12.7-14.4-16.1-14.4-16.1
	c-8.4-4.4-14.5-9.1-19.4-14c3.6-12.2,5.5-25.1,5.5-38.5c0-75.9-61.5-137.4-137.4-137.4c-74.2,0-134.7,58.9-137.2,132.5
	c-10.6,1.4-49.9,8.6-49.9,38.6c0,13.6,9.3,23.4,23.6,23.4c3.6,0,7.6-1,7.6-1s-4.1,6.4-2.8,11.5c0,0-1.7,1.9-8.2,2.8
	c-10,13.3-1.8,34.8-21.7,51.8c-0.5,2.8-0.4,5.2,0,7.2c-1.9,2.9-5.2,3.8-5.2,3.8C42,342.5,44.3,342.2,45.7,341.6 M145.3,299.2
	c-1.5,1.4-2.9,2.2-4.1,2.7c-3.9-3.8-7.6-7.9-11.1-12.2c5.5-4.3,11.6-8.6,18.2-12.2C143.8,287.6,145.3,299.2,145.3,299.2
	 M232.6,339.1c-24.5,0-47.5-6.8-67.1-18.5c1.7,0.1,3.8,0.2,6.1,0.1c0,0,11.9-8,20.2-21.5c7.3,6.7,22.9,2.4,22.9,2.4l6.6,2.7
	c2.6-0.4,4.6-0.9,6.3-1.5c2.3,2.3,2.3,5.2,2.3,5.2c2.2-2.2,2.2-5,1.7-7.3c1.4-1.1,2.1-2.2,2.4-3c0.5-0.3,1.1-0.6,1.5-0.9
	c2.3,1.6,3.4,5,3.4,5c1.7-3.8,0.9-6.6,0-8.3c1.1-1.5,1.5-2.8,1.5-2.8l-0.1-0.4c0.4-0.3,0.7-0.6,1-1c2.5,2.4,3.1,5.2,3.1,5.2
	c2.2-4.2,1.1-7.6,0.1-9.5c0.6-1.1,0.9-1.9,0.9-1.9c0-0.6,0-1.2-0.1-1.8c0.4-0.4,0.8-0.8,1.1-1.2c2.5,2.3,2.5,5.2,2.5,5.2
	c2.2-3.7,1.3-8.1,0.5-10.4c0.9-2.4,0.9-4.2,0.9-4.2c-2.9-13.1-21.2-12.2-21.2-12.2c-7.9,4.5-14.7,5.2-17.9,5.3l-2.6-4.7
	c12.5-1.2,15.1-6,26.3-6c11.9,0,18,6.6,18,6.6s12.5-5.5,22.9-16.4c9.5,6.6,30.3,5.8,30.3,5.8c10.5,11.8,29.5,17.7,29.5,17.7
	c-1,4.9,0.8,7.5,2.9,8.8c-0.3,2.4-0.3,5.6,1.3,8C316,317,276.9,339.1,232.6,339.1 M196.5,210.6c-0.6-2.1,1.7-8.1,1.7-8.1
	c-5.6,1.1-9.9,4.3-9.9,4.3c1.1-22.8,12.3-32.2,12.3-32.2c-3.4-1.3-8-0.7-8-0.7c0.6-0.9,1.3-2.1,2.1-3.3c3.7,0.4,7.6,0.8,10.9,1.5
	c-1.7,2.7-2.4,5.9-1.2,9.3c0,0-7.3,6.7-10.5,18.1c0,0,2.6-2.4,10.1-4.2c0,0-0.7,2.8-2.2,9c0,0,4.1-1.1,10.4-2.4c0,0-1.4,5.6-2,11.9
	c0,0,8.3-2.2,11.5-0.6c-0.5,2.4-3.6,18.8,7.2,21.6c1.6,0.4,2.5-0.3,3.5-0.6c0.9-0.3,4-1.2,6.7-1.2s5.8,0.9,6.7,1.2
	c0.9,0.3,1.9,1,3.5,0.6c10.9-2.8,7.8-17.4,7.3-19.7c-0.5-2.4-0.4-9.4-0.4-9.4c1.4,0,6,0.8,6,0.8c-5.4-12.3,6.6-18.7,6.6-18.7
	c-0.3-2.8-2.6-5.3-2.6-5.3c2.2-3.7,2.9-6.9,2.7-9.6c4-1.1,9.5-1.8,14.6-2.3c0.8,1.2,1.5,2.4,2.1,3.3c0,0-3,0-6.6,0.7
	c0,0,12.7,19,12,32.6c0,0-4.9-2.7-11.6-2.8c0,0,1.2,3,1.4,4.6c0,0-6.1-1.6-9.2-1.7c0,0,2.7,7.3,1,11.6c0,0-4.4-2.2-12.4-1.6
	c0,0,3.2,16.1-4.5,19.6c-2.8,1.3-8.8,3.4-16.6,3.4s-13.2-2.1-16.6-3.4c-7.3-2.7-4.5-19.6-4.5-19.6c-4.8-0.6-11,1.6-11,1.6
	c-1.6-4.2,1.1-11.6,1.1-11.6C203.9,207.7,196.5,210.6,196.5,210.6 M241.2,137.3c0,0,5.4,2,8.2,5.1c-2.6,0.6-5,1.2-6.9,1.6
	c-5.2-3.6-14.7-3.4-14.7-3.4c0.9,0.6,1.6,1.1,2.3,2c-11.5-3.2-17.3-1.8-26.5,2.8c0,0-3-1-6.7-1.9c11.7-5.6,30.7-10.3,45.2-3.8
	L241.2,137.3z M203.8,152.4l0.6,3.3c4.6-5,11.3-8.3,11.3-8.3c8.8-2.8,23.3,3.2,23.3,3.2s14.4-6,23.3-3.2c0,0,5.6,2.4,10,6.9
	c0,0,10.5-5.7,16.6-6.3c0,0,1.4,9.8-4.4,15.8c0,0,0.7-6.1,0.2-8.9c0,0-2.3-0.2-8.9,4.8c0,0,1.3,1.7,3,4.1c-4.9,0-9.6,0.6-13.8,1.5
	c-0.8-0.8-1.6-1.4-2.5-2c-1.2-0.8-2.5-1.5-3.7-2.1c-1.6-0.6-2-2.6-0.3-2.6c1.9,0,2,1.8,2,1.8l3.6-1.6l5.1,0.2l3.2,0.1l-9.7-6.2
	l-12.2,5.3l-8.5-1.7l4.8,3.4h-15.1l4.8-3.4l-8.5,1.7l-12.2-5.3l-9.7,6.2l3.1-0.1l5.2-0.2l3.6,1.6c-0.1-0.6,0.5-1.9,2-1.9
	c1.9,0,1.2,2.3-0.4,2.6c-1.2,0.6-2.5,1.2-3.8,2c-1,0.6-2,1.2-3.1,1.9c-4-0.8-8.5-1.4-13.1-1.4c1.7-2.3,3-4.1,3-4.1
	c-4.8-7.5-10.6-10.9-10.6-10.9C195.6,149.1,200.1,150.7,203.8,152.4 M282.1,168.6c-4.7,0.3-9.5,0.9-13.9,1.7
	c-0.4-1.1-0.9-2.2-1.6-3.1c4.3-1.2,9.2-2.1,12.7-2.6C280.3,165.9,281.2,167.3,282.1,168.6 M263.5,175.7c-0.7,1.4-1.8,3-3.6,4.8
	l-16.3-3l-2.3-5.2c2.6-3.6,13.6-8.1,13.6-8.1c1.5,0.6,3.2,1.3,4.8,2.2c-5.8,1.6-9.6,3.4-9.6,3.4l11.9-1.1c0.2-0.1,0.4-0.1,0.5-0.2
	c0.7,0.7,1.3,1.6,1.5,2.5c-9.4,1.9-16.4,4.2-16.4,4.2L263.5,175.7z M214.3,171.2c0.3-0.9,0.8-1.8,1.5-2.5c0.1,0,0.2,0.1,0.3,0.1
	l11.9,1.1c0,0-3.7-1.7-9.4-3.4c1.6-0.9,3.4-1.6,4.9-2.2c0,0,11,4.5,13.6,8.1l-2.3,5.2l-16.3,3c-1.8-1.8-2.9-3.4-3.6-4.9l15.5-0.4
	C230.3,175.3,223.5,173.1,214.3,171.2 M231.6,190.9c6.8-2.5,7.4,8.6,7.5,11.8c0-3.2,0.7-14.4,7.5-11.8c0,0-4.4,8.7-0.9,14.4
	c3.3,5.4,0.5,14.1-1.5,14.8c-1.2,0.4-2.3,0.5-5,0.5c-2.7,0-3.9-0.1-5-0.5c-2-0.6-4.9-9.3-1.6-14.8
	C235.9,199.5,231.6,190.9,231.6,190.9 M247,186.5l-2.8-1.2l-1.7,1l-1.8-1l-1.7,1l-1.7-1l-1.8,1l-1.7-1l-2.8,1.2
	c-3.2-3.1-0.6-5.3-0.6-5.3l3.6,1.9h10l3.6-1.9C247.6,181.3,250.2,183.5,247,186.5 M229.6,162.8h18.8l-9.4,2.7L229.6,162.8z
	 M219.6,184c0,0,3.5-2.7,7.1-2c0,0-4.9,9.5-0.4,17.1C226.3,199,219.1,196,219.6,184 M225.9,217.2c2.1,5.9,7.4,9.1,7.4,9.1l2.1-1.4
	l2,1.4l1.6-1.4l1.6,1.4l2-1.4l2.1,1.4c0,0,5.4-3.2,7.4-9.1c0,0,2.4,6.5-3.7,12.3l-3.8-1.1c0,0-2.1,1.1-5.6,1.1
	c-3.5,0-5.6-1.1-5.6-1.1l-3.8,1.1C223.5,223.7,225.9,217.2,225.9,217.2 M251.7,199c4.5-7.6-0.4-17.1-0.4-17.1c3.6-0.7,7.1,2,7.1,2
	C258.9,196,251.7,199,251.7,199 M210.1,166.9c-1.1,0.9-2.1,1.9-3,3c-3.6-0.6-7.4-1-11.1-1.3c0.9-1.4,1.9-2.7,2.8-4
	C201.8,165.1,206.1,165.9,210.1,166.9 M371.1,258.8c-3.6,0.2-5.4,1-5.4,1c9.8,1.8,16.5,4.6,20.5,7.7c6.9,5.2,6.6,11.4,1.8,15.4
	c0.6-4.8-2.8-7.2-2.8-7.2c3,4.2-0.6,10-0.6,10c-2.9,1.5-6.1-0.4-6.1-0.4c2.4-7.5-3.2-11.5-3.2-11.5c3,4.3,0.2,10.8,0.2,10.8
	c-5.7,1.9-7.5-1.8-7.5-1.8c2.3-7.6-3.7-10.6-3.7-10.6c4.6,4.6,0.4,9.8,0.4,9.8c-5.4,2-10.1-1.7-10.1-1.7c-2.2-3.1-3.7-6.8-3.7-6.8
	c-11.4-4.3-8.4-11.2-8.4-11.2c-12.1-1.8-23.9-10.9-29.6-16c-0.3-2.7-0.3-6.4,0.6-10.1c0.5-1.8,1.2-3.6,2.2-5.3c0,0-3,1.3-5.6,4.7
	c-1.4,1.8-2.7,4.2-3.5,7.4c-2.6,0-5.1-0.2-7.3-0.6c-0.6-2.8-0.8-5.3-0.6-7.6c0.5-10.4,7-16.3,7-16.3c-7.9,1.8-12.1,8.3-13.8,15
	c-0.6,2.3-0.9,4.6-0.9,6.8c-4.1-1.5-7.2-3.2-9.2-4.6c1.1-1.6,2.1-3.3,3-5.1c1.2-2.4,2.3-5.1,3.1-7.8c0,0-5.4,6.8-13.9,13.7
	c1.2-4,0.8-6.8,0.8-6.8s-2.4,5.3-15.3,16.2c5.2-5.5,10.3-13,11.1-21.2c6.3,1.1,10,2.6,10,2.6c1.6-6,0-11.9,0-11.9
	c3.8,0.9,6.7,2.8,6.7,2.8c-0.4-2.2-1.8-6.9-1.8-6.9c6.6,2.6,12.7,6.9,12.7,6.9c1.4-23.4-10.3-39.7-10.3-39.7c1.7-0.1,3.5,0,5.1,0.1
	c2.7,1.9,5.2,4.1,7.5,6.4c1.9,4.6,5.3,14.9,3.2,25.5c0,0,4.6-2.6,5.2-15.3c4.8,6.9,7.7,13.4,9.1,16.9c-3,2-7.2,6.4-8,15.9
	c0,0,5.6-9.2,14.1-11.6c3.4,1.4,6.6,3.1,9.7,5.2c-4.1,2.5-12,9-12.7,21.7c-0.1,1.5,0,3,0.1,4.7c0,0,0.4-1.5,1.3-3.6
	c2.4-5.5,8.2-15.5,19.8-16c1.5,1.4,2.9,2.9,4.2,4.4c-3.1,1.1-8.8,4.3-10.7,12.5c0,0,7.4-7.2,14.7-7.5
	C355.5,243.9,358.2,250.9,371.1,258.8 M232.6,77.1c72.3,0,131,58.6,131,131c0,11.4-1.5,22.4-4.2,33c-11.2-13.4-16.2-26.6-36.7-33
	c-8.2-20.6-20.6-32.3-29.2-38.3l5.4-0.2c-2.2-0.5-4.7-0.9-7.2-1l-1.2-0.8c5.7-6.3,7.1-20.8,4.6-24.3c-2.6-3.7-20.4,2.1-20.4,2.1
	c-4.3-1.9-11.4-4.9-16.2-4.5c-4.3-4.4-13.3-11.7-25.5-12.4c0,0,1,1.7,1.7,3.7c-25.5-3.7-46.5,9.9-46.5,9.9c-5.5-0.4-5.5,2.1-5.8,3.6
	c-33.1,21.6-44.5,50.9-58.2,69.6c-5.3,4.1-12.6,9.9-20.4,15.4c-0.5-2.9-0.9-5.8-1.2-8.7c4.1-0.9,7.3-3.2,7.3-8.8
	c0-4.6-4.1-6.5-8-7.3C102.7,134.6,160.9,77.1,232.6,77.1 M71.3,245.8c-3.6,0-5.8-1.3-5.8-4.5c0-9.9,15.5-18.6,28.3-18.6
	c0.7,0,1.4,0,2.2,0c0.4,4.1,1,8,1.8,12C88.2,240.9,78.5,245.8,71.3,245.8 M91.7,250.5c-1.3,0.8-2.6,1.6-3.7,2.4
	c-0.1-1.9-0.8-4.6-3-7.1c1.2-0.5,2.4-1.1,3.7-1.7C89.9,245.3,91.6,247.4,91.7,250.5 M107.2,232.8c0.5,0.5,1,1.3,1.1,2.4
	c-3.3,3.7-6.2,6.7-8.6,9.1c-0.1-1.4-0.8-3.2-2.6-4.8C100.2,237.6,103.6,235.4,107.2,232.8 M80.8,210.3c2.9-0.9,6.1-1.7,9.6-2.3
	c0,0-1.6,1.6-1.9,2.2c0,0,2.6-0.6,5.7-0.9c-1.2,1.8-3.1,5.5-2,9.2c-2.6,0.2-6.7,0.7-11.1,2.1C79.6,216.7,80.2,212.6,80.8,210.3
	 M60.1,221.4c3.3,4.8,6.6,3.9,6.6,3.9c-1.8-2-2.2-5.1-2.2-7.4c2.1-1.4,4.5-2.8,7.1-4.1c-0.9,4.3,1.1,7.7,2.8,9.7
	c-8.8,4.9-11.4,10.9-11.4,10.9c-4.8-1-7.2-4.9-8.1-7.1C56.3,225.4,58,223.4,60.1,221.4 M51.8,249.3c0,0-2.9-6.3-1-13.4
	c3.2,4.5,7.5,5.2,10,5.1c-0.2,2,0.2,3.9,1.4,5.5C58.8,249.8,54.3,249.7,51.8,249.3 M74.9,258.6c0.2-3.9-2.8-6.3-2.8-6.3
	c0.5,2-1.3,5.1-2.7,7c-7.5,0.5-11.8-3.1-11.8-3.1c5.4-2.1,8-5.1,9.2-7c2.3,0.5,6.2,0.7,12.4-1.3c1.3,1.4,3.4,4.4,2.6,8.7
	C79.6,257.4,77.3,258.1,74.9,258.6 M48.7,332.5c1-0.8,1.9-1.7,2.8-2.7c5.6-6.1,8.8-14.2,10.6-20.2c2,2,5.6,3.9,11.6,2.2
	c0,0-6.7-3.3-10.1-9.2c0.2-1.3,0.4-2.5,0.6-3.6c1.4,2.2,3.9,4.5,8.3,5.6c0,0-5.2-5.8-6.6-12.5c1.9-6.1,3.8-9.4,3.8-9.4
	c1.7,1.1,9.2-1.9,9.2-1.9c-1-6.6,0.8-11.8,3.7-15.9c9.4-0.9,14.1,7.8,14.1,7.8c0.7-8.1-5.1-12.3-8.3-13.9c3.2-2.7,9-6.1,10-6.9
	c3.6,8.3,14.1,11.2,15.6,18.9c2.8-8-7.4-14.7-8.6-24.6c4.6-4.2,8.9-9.1,13.1-14.3c2.3,6,6.9,13.4,15.8,18.2c0,0-7.4-8.9-10.5-25.1
	c1.7-2.3,3.2-4.6,4.8-6.8c0.9,3.3,3.1,7.6,8.8,10.8c0,0-4.4-9.4-3.9-18.3c2.1-3.3,4-6.5,5.7-9.2c-0.4,3.4-0.2,8.3,1.9,13.2
	c0,0,0.9-13.8,5.1-24.6c5.5-7.6,10.9-14.2,16.2-19.8c3.6,0.8,9.3,3.4,11,11.1c0,0,4.9-10.6-5.1-17c1.4-1.4,2.9-2.7,4.3-3.9
	c2,0.6,5,2.1,6.3,5.1c0,0,1.1-3.2-2.6-8.2c2-1.6,4-3.2,5.9-4.6c0.6,5.7,2.6,12.5,6.3,15.9c-3.2,0.1-6.3,0.5-9.1,1.1
	c0,0,3.6,0.1,8.4,0.4c-1.7,1.7-4.9,5.3-6.3,8.8c0,0,5.8-0.7,9.3-0.5c0,0-1.8,2.4-3.9,6.9c-3.6,0.2-9.4,1.6-17.9,6.4
	c0,0,8.7-2.7,15.4-0.7c-2.6,6.9-4.9,16.2-4.6,27.4c0,0,4.5-3.2,10.4-5.7c0,0,1.1,5.8,1.2,9.8c-6.7-0.5-21.9,0.1-28.4,14.7
	c0,0,15.2-12.8,28-6c-0.4,2-0.9,4-1.7,5.8c0,0,1.6,2.6,3.7,6.4c-4.2,1.2-12.2,5-14.4,15.3c0,0,8-10.1,17.9-9
	c3.4,6.3,7.1,13.5,8.6,18c-1.6,2.1-2.5,4.3-2.5,4.3c2.6-2.1,8.1-3.5,8.1-3.5c11.9,0.5,19-4.8,19-4.8c10.3,0,13.9,7.8,13.9,7.8
	c-0.1,1.8-0.9,3.2-1.7,4.1c-3.5-3.3-8.4-4.6-8.4-4.6c5.6,3.5,6.4,8.5,6.4,8.5c-0.7,1.4-1.8,3-2.9,4.2c-3.7-4-8.9-5-8.9-5
	c7,4.7,6,8.7,6,8.7c-0.5,2-1.5,3.5-2.5,4.6c-4.3-5-9.8-5.6-9.8-5.6c3.8,1.9,5.9,6.8,5.9,6.8c-2.4,5.1-8.3,5.1-8.3,5.1
	c-1-1.3-5.6-3.9-5.6-3.9c-18,2.4-22-5.9-22.5-12.6c-0.3-4.1,0.7-7.5,0.7-7.5c-1,2.5-1.8,4.8-2.4,6.9c-0.9-0.4-3.5-1.7-7.1-3.8
	c-0.8-9.2,4.8-13.5,4.8-13.5c-7,1.2-9.8,6.4-10.8,9.5c-6-3.3-11-10.4-11-10.4c0.3-14.3,11.2-19.4,11.2-19.4
	c-11.7-0.4-16.6,9.7-17.6,12.3c-3.8-4.7-3.8-10.3-7.9-15c4.9-18.4,18.5-20.6,18.5-20.6c-11.7-1.6-19.8,9.7-22.4,13.9
	c0.2-1.8,0.6-4,1.1-6.6c11.8-19.3,28.7-22.1,28.7-22.1c-8.4-4.1-20.8,4.2-24.9,7.2c2.2-6.9,5.4-13.9,9.6-19.4c0,0-5.3,1.3-6.8,1.9
	c0,0,3.2-9.9,10.3-16.4c0,0-12.2,7.4-17.2,23.1c0,0,2.6-0.8,3.5-1c0,0-11.3,18.4-11.6,41c0,0,2.5-0.1,5.4,3.3
	c1.4,1.6,2.9,4.1,4.2,7.8c-4,2.5-10.5,6.9-17.8,13.1c-1.6-1.3-3.2-3-4.9-5c-2.9-3.5-5.7-8.1-7.7-14c0,0-1.8,9.7,3.2,19.1
	c0.9,1.7,2.1,3.4,3.5,5c-6.8,6.2-14.1,13.8-20.5,22.7c-0.1,0-0.1-0.1-0.2-0.1c-6.6-4.2-6.6-18.4-20.1-19.9
	c10.2,5.1,5.8,17.4,15.4,27.2c-0.5,0.8-0.9,1.5-1.4,2.3c-3.9-1.5-8.1-4.1-11.3-8.6c0,0,1,8.4,8.8,13.1c-0.4,0.8-0.8,1.6-1.2,2.4
	c-4.9-1.2-12.3-4.4-16.7-12.2c0.4,7.4,5.2,12.2,5.2,12.2c-2.5,6-4.1,13.9-4.1,13.9c-2.6,0.5-7.7,0.4-13.6-5.2
	c0,0,1.7,10.6,12.5,11.3c-0.6,2.8-0.8,6.3-1.2,9.8c-0.3,2.3-0.7,4.6-1.5,6.7c0,0-2.1,1.6-5,2.1c0.1-1.4,0-2.9-0.3-3.9
	c0,0-1.4,4.1-3.7,5.6c0,0-3.8,1-6.8-1.8c0.8-1.7,1.4-3.8,1.5-6.2c0,0-2.4,4.4-4.9,6.2c0,0-3.9-0.4-5.6-3.8c0,0,2.1-2.8,1.5-6.6
	c0,0-0.6,0.8-2,2.3C47.9,337.2,48.7,332.5,48.7,332.5"/>
<polygon points="257.3,151.2 246.2,154 250.5,156.1 "/>
<polygon points="231.9,154 220.9,151.2 227.7,156.1 "/>
<path d="M268.7,202.1c3-0.2,8,0.8,8,0.8c0-1.7-1.1-5.8-1.1-5.8c2.7,0,6.2,0.2,8.5,0.7c0,0-4.1-14.5-12.1-20.9
	c2.4,4.8,3.5,13.1,3.3,14.5c0,0-2-0.2-5.8,0.2c0,0,1.5,4.6,1.4,6.5c0,0-4.8-0.5-6.4,0.2c0,0,4.1,7.6,4.5,14.7
	C268.8,213.1,269.3,204.6,268.7,202.1"/>
<polygon points="193.5,324.7 196.8,325.6 199.2,317.3 203.6,318.6 204.4,315.8 200.1,314.5 201.5,309.7 207.3,311.4 208.1,308.6 
	199.1,305.9 "/>
<path d="M220.6,310.4c-3.5-0.4-5.4,1.6-5.7,4.4l-1.2,10c-0.3,2.8,1,5.2,4.5,5.6c3.5,0.4,5.4-1.6,5.7-4.4l1.2-10
	C225.4,313.3,224.1,310.8,220.6,310.4 M221.7,315.7l-1.2,9.9c-0.2,1.5-0.7,2.1-2,2c-1.4-0.2-1.7-0.9-1.5-2.4l1.2-9.9
	c0.2-1.5,0.7-2.1,2-2C221.6,313.5,221.9,314.2,221.7,315.7"/>
<path d="M239.6,310.9c-3.5,0.2-5,2.6-4.8,5.4l0.7,10.1c0.2,2.8,2,4.9,5.5,4.7c3.5-0.2,5-2.6,4.8-5.4l-0.7-10.1
	C245,312.8,243.2,310.6,239.6,310.9 M240.9,328.1c-1.4,0.1-1.8-0.6-1.9-2l-0.7-9.9c-0.1-1.5,0.3-2.2,1.6-2.3c1.4-0.1,1.8,0.6,1.9,2
	l0.7,9.9C242.6,327.2,242.2,328,240.9,328.1"/>
<polygon points="261.8,310.3 261.1,307.5 251.5,309.8 252.2,312.6 255.4,311.9 259.2,328.1 262.5,327.3 258.6,311.1 "/>
<path d="M278.5,310.9c1.3-1.2,1.2-3.1,0.6-4.7c-1.3-3.1-3.5-4.2-6.8-2.8l-4.6,1.9l7.6,18.1l4.9-2c3.5-1.5,3.9-4.3,2.7-7.3
	C281.8,311.8,280.3,311,278.5,310.9 M271.8,306.6l1.2-0.5c1.4-0.6,2.4,0,3.1,1.7c0.6,1.5,0.1,2.7-1.1,3.2l-1.1,0.5L271.8,306.6z
	 M278.5,319.1l-1.3,0.5l-2.3-5.6l1-0.4c1.9-0.8,2.9-0.1,3.7,1.7C280.4,317.2,280.2,318.4,278.5,319.1"/>
<path d="M286.2,296.4l7.5,18.5l2.8-1.8l-1.8-4l3.1-2l2.8,3.4l2.8-1.8l-13.5-14.6L286.2,296.4z M290.1,298.6l5.6,6.4l-2.3,1.5
	L290.1,298.6L290.1,298.6z"/>
<polygon points="312,298 300.9,285.6 298.4,287.8 311.4,302.5 317.9,296.7 315.9,294.5 "/>
<polygon points="323.8,286.1 311.1,275.3 308.9,277.9 323.8,290.5 329.4,283.9 327.2,282 "/>
<path d="M174.4,137.3c5.6-4.8,7.6-10.5,7.6-10.5l-10.6-12.5l-9.6,8.2l4.5,5.3l4.1-3.5l2.7,3.2c0,0-0.9,2.5-3.6,4.8
	c-3.1,2.6-8.6,3.7-12.7-1.1c-2.5-3-4.4-8.6,0.6-12.9c3.9-3.3,7.6-2.5,7.6-2.5l0.3-7.8c0,0-5.7-0.8-12,4.6c-8.1,6.9-8.8,16-2.1,23.8
	C156.9,143.1,166.4,144.1,174.4,137.3"/>
<polygon points="125.1,162.9 147.1,172.9 150.2,166.2 128.2,156.1 131.8,148.3 125.7,145.5 115.4,167.9 121.6,170.7 "/>
<rect x="141.2" y="129.9" transform="matrix(0.5818 -0.8133 0.8133 0.5818 -57.6185 178.6438)" width="7.5" height="30.9"/>
<polygon points="207.9,118.3 205.2,111.9 191.8,117.5 189.8,112.6 201.8,107.7 199.1,101.2 187.1,106.2 185.3,101.8 198,96.5 
	195.3,90.1 175.7,98.3 187.6,126.8 "/>
<rect x="240.4" y="96.3" transform="matrix(0.1018 -0.9948 0.9948 0.1018 117.1884 333.6142)" width="5.9" height="11.3"/>
<path d="M280.7,128.8l5.8-3.7l8.9,6.6l-1.7,6.7l6.8,5l7.5-32.8l-4.9-3.6l-29,17L280.7,128.8z M299.3,117l-2.1,8.1l-4.9-3.6
	L299.3,117z"/>
<polygon points="301.4,146.4 306.1,152.1 324.8,136.8 330.2,143.4 335.4,139.1 319.8,120.1 314.6,124.4 320,131 "/>
<path d="M329.9,148.1c-5.4,2.7-4.6,7.8-4,11.9c0.5,3.3,0.7,5.4-1,6.3c-1.8,0.9-3.5-1-4.3-2.5c-0.9-1.9-0.9-4.5,0.2-6.5l-7.6-2.2
	c-1.3,3.8-0.9,7.7,1,11.4c3.2,6.5,8.9,9,14.5,6.2c5.8-2.8,4.9-7.9,4.2-12c-0.5-3.1-0.8-5.1,0.9-5.9c1.8-0.9,3.5,1,4.2,2.4
	c0.6,1.3,1.1,3.7,0.1,5.3l7.3,2.1c1-3.2,0.5-6.9-1.2-10.4C341.8,149.1,336.2,145,329.9,148.1"/>
<path d="M219.1,116.6l-1.3-11.9l2.6-0.3l7.5,11.3l8.9-1l-9.1-12c0,0,6.1-1.8,5.3-9.1c-0.7-6.2-5.1-9.1-12.7-8.2l-12,1.3l3.3,30.7
	L219.1,116.6z M220.4,91.9c1.8-0.2,4.7-0.3,5,2.5c0.3,2.5-1.7,3.1-4.8,3.5l-3.5,0.4l-0.6-5.9L220.4,91.9z"/>
<path d="M264.5,122.2c8.1,2.8,13.1-1.6,13.1-1.6l-4.4-6.4c0,0-3,2.6-6.8,1.3c-4.3-1.5-6.5-6.3-4.8-11.3c1.7-4.9,6-7.9,10.8-6.2
	c3.9,1.4,4.5,4.3,4.5,4.3l6.9-2.6c0,0-1.6-5.6-8.4-8c-9.8-3.4-18,1.1-21.2,10.1C251.1,110.8,256.2,119.3,264.5,122.2"/>
<polygon points="346.6,310.5 346.6,303.8 349,303.8 349,303 343.5,303 343.5,303.8 345.8,303.8 345.8,310.5 "/>
<polygon points="356.5,310.5 356.5,303 355.2,303 353.3,309.1 351.3,303 350,303 350,310.5 350.8,310.5 350.8,304.1 352.9,310.5 
	353.7,310.5 355.7,304.1 355.7,310.5 "/>
</svg>
