<?xml version="1.0" encoding="utf-8"?>
<!-- Generator: Adobe Illustrator 26.3.1, SVG Export Plug-In . SVG Version: 6.00 Build 0)  -->
<svg version="1.1" id="Layer_1" xmlns="http://www.w3.org/2000/svg" xmlns:xlink="http://www.w3.org/1999/xlink" x="0px" y="0px"
	 viewBox="0 0 552.2 109.8" style="enable-background:new 0 0 552.2 109.8;" xml:space="preserve">
<style type="text/css">
	.st0{fill:#FFFFFE;}
	.st1{fill:#FF6B00;}
	.st2{fill:#FFFFFF;}
</style>
<g>
	<g>
		<path class="st0" d="M502,64"/>
	</g>
	<path class="st1" d="M351,0.6c-0.2,0-0.3-0.1-0.3-0.3S350.8,0,351,0h180.8v109.8C490.3,51.2,425.5,10.4,351,0.6"/>
	<path class="st2" d="M502,64c1.2-18.1,0.8-28.6,3.9-31.5c2.9-2.6,8-3.4,16.8-4c-19.2-2.2-18.8-1.7-20.7-20.4
		c-1.9,18.7-1.5,18.1-20.7,20.4c8.8,0.6,13.9,1.4,16.8,4C501.1,35.3,500.7,45.9,502,64"/>
	<path class="st2" d="M502,64"/>
	<g>
		<path d="M121.1,68.7v39.1h10.8V76c3.6-3.1,6.2-2.1,13.4,3.8l4.4-9.8c-2.2-0.9-5-2-9-2c-4.1,0-7.1,2-8.5,3.7l-0.5,0.6l-0.1-0.1
			l0.1-3.6L121.1,68.7L121.1,68.7z M164.8,48H154v59.7h10.8V48z M72.3,88.2c0,10.9,8.1,19.9,21.2,19.9c13.1,0,21.2-9,21.2-19.9
			s-8.1-19.9-21.2-19.9C80.4,68.3,72.3,77.3,72.3,88.2 M301.6,68.7h-10.8v39.1h10.8V68.7z M297.5,51c-3.2,0-5.7,2.5-5.7,5.7
			s2.5,5.7,5.7,5.7s5.7-2.5,5.7-5.7S300.7,51,297.5,51 M308.3,79.4c-1,14.9,20.8,11.3,20.2,20.4c-0.3,3.6-3.4,4.9-6.8,4.8
			c-5.4-0.4-8.7-3.5-11.6-7l-3.2,7.2c4.4,2.5,9.1,3.7,13.3,4.1c9.4,0.6,17.2-3.4,17.8-12.5c0.9-14-21.6-12.3-21.2-19.4
			c0.2-3.1,3.7-4.7,7.4-4.5c3.7,0.3,6.7,2.4,9.9,5.3l2.9-6.4c-4.1-1.8-7.9-2.6-11.3-2.9C315.4,67.8,308.7,73.1,308.3,79.4
			 M190.8,108.6c5.1,0,9.2-1.8,13-4.7l0.2,0.1v3.7h10V48h-10.8v23.8c-3-2.3-7.6-3.7-12.3-3.7c-5.9,0-20.1,3.6-20.1,20.8
			C170.8,101.6,182,108.6,190.8,108.6 M261.2,107.8h4.6l22.9-52.5h-5.9l-15.9,36.9l-15.7-36.9h-13.1L261.2,107.8z M452.6,107.8V86.3
			c0-14.5-11.1-18.2-17.7-18.2c-4.7,0-8.6,1.8-12.6,4.5l-0.2-0.1v-3.7h-10v39.1H423V76.4c3.2-2.8,6.3-4,9-4c5.7,0,9.7,5.5,9.7,11.5
			v23.9L452.6,107.8L452.6,107.8z M44.1,60.3H38L25.7,92L12.6,55.5H0l19.4,52.1h5.9l12.6-32.2l12.5,32.2h5.9l19.4-52h-5.9L56.2,92
			L44.1,60.3z M103.2,88.2c0,9-3,16.2-9.8,16.2s-9.8-7.2-9.8-16.2s3-16.2,9.8-16.2C100.2,72,103.2,79.2,103.2,88.2 M362.8,88.2
			c0,10.9,8.1,19.9,21.2,19.9s21.2-9,21.2-19.9s-8.1-19.9-21.2-19.9S362.8,77.3,362.8,88.2 M393.7,88.2c0,9-3,16.2-9.8,16.2
			s-9.8-7.2-9.8-16.2s3-16.2,9.8-16.2C390.7,72,393.7,79.2,393.7,88.2 M203.1,76.5v23.6c-2.8,2.4-5.4,4.2-9.3,4.2
			c-4.8,0-11-4.1-11-15.8C182.8,75.8,192.6,66.6,203.1,76.5"/>
		<g>
			<rect x="344.9" y="68.7" width="10.8" height="39.1"/>
			<path d="M350.6,51c-3.2,0-5.7,2.5-5.7,5.7s2.5,5.7,5.7,5.7s5.7-2.5,5.7-5.7C356.3,53.5,353.9,51,350.6,51"/>
		</g>
	</g>
	<g>
		<path d="M550.6,4.4c1.1,1,1.6,2.3,1.6,3.8s-0.5,2.7-1.6,3.7s-2.3,1.6-3.8,1.6s-2.7-0.5-3.8-1.6c-1-1-1.6-2.3-1.6-3.7
			c0-1.5,0.5-2.7,1.6-3.8s2.3-1.6,3.8-1.6C548.3,2.9,549.5,3.4,550.6,4.4z M550.2,11.5c0.9-0.9,1.4-2,1.4-3.3s-0.5-2.4-1.4-3.3
			c-0.9-0.9-2-1.4-3.3-1.4s-2.4,0.5-3.3,1.4c-0.9,0.9-1.4,2-1.4,3.3s0.5,2.4,1.4,3.3c0.9,0.9,2,1.4,3.3,1.4S549.2,12.5,550.2,11.5z
			 M544.5,5.2h2.5c0.7,0,1.2,0.1,1.5,0.4c0.4,0.3,0.5,0.7,0.5,1.2c0,0.4-0.2,0.8-0.5,1.1s-0.7,0.5-1.2,0.5c0.2,0.1,0.5,0.2,0.6,0.3
			c0.2,0.1,0.3,0.4,0.5,0.6l1.1,1.7h-1.4l-0.9-1.5c-0.2-0.4-0.5-0.7-0.6-0.8c-0.2-0.1-0.4-0.1-0.7-0.1h-0.5V11h-1.2V5.2H544.5z
			 M546.6,7.9c0.4,0,0.7-0.1,0.9-0.2c0.2-0.2,0.4-0.4,0.4-0.7c0-0.6-0.4-0.9-1.2-0.9h-0.9V8h0.8V7.9z"/>
	</g>
	<g>
		<path d="M464.3,68.6c1.1,1,1.6,2.3,1.6,3.8s-0.5,2.7-1.6,3.7s-2.3,1.6-3.8,1.6s-2.7-0.5-3.8-1.6c-1-1-1.6-2.3-1.6-3.7
			c0-1.5,0.5-2.7,1.6-3.8s2.3-1.6,3.8-1.6S463.2,67.5,464.3,68.6z M463.9,75.7c0.9-0.9,1.4-2,1.4-3.3s-0.5-2.4-1.4-3.3
			s-2-1.4-3.3-1.4s-2.4,0.5-3.3,1.4c-0.9,0.9-1.4,2-1.4,3.3s0.5,2.4,1.4,3.3s2,1.4,3.3,1.4S462.9,76.6,463.9,75.7z M458.2,69.3h2.5
			c0.7,0,1.2,0.1,1.5,0.4c0.4,0.3,0.5,0.7,0.5,1.2c0,0.4-0.2,0.8-0.5,1.1s-0.7,0.5-1.2,0.5c0.2,0.1,0.5,0.2,0.6,0.3
			c0.2,0.1,0.3,0.4,0.5,0.6l1.1,1.7H462l-0.9-1.5c-0.2-0.4-0.5-0.7-0.6-0.8c-0.2-0.1-0.4-0.1-0.7-0.1h-0.5v2.4h-1.2v-5.8H458.2z
			 M460.2,72.1c0.4,0,0.7-0.1,0.9-0.2c0.2-0.2,0.4-0.4,0.4-0.7c0-0.6-0.4-0.9-1.2-0.9h-0.9v1.9L460.2,72.1L460.2,72.1z"/>
	</g>
</g>
</svg>
