<svg xmlns="http://www.w3.org/2000/svg" width="153" height="40" fill="none"><path fill="#3C2979" d="M53.727 25.277h8.887v-2.42h-5.952V11.396h-2.934v13.88ZM68.634 25.48c3.159 0 5.125-2.162 5.125-5.368 0-3.226-1.966-5.381-5.125-5.381-3.158 0-5.124 2.155-5.124 5.381 0 3.206 1.966 5.369 5.124 5.369Zm.014-2.236c-1.457 0-2.203-1.336-2.203-3.152 0-1.817.746-3.159 2.203-3.159 1.43 0 2.176 1.342 2.176 3.159 0 1.816-.746 3.152-2.176 3.152ZM79.754 29.398c2.976 0 5.09-1.355 5.09-4.02V14.867h-2.867v1.749h-.108c-.387-.847-1.234-1.884-2.976-1.884-2.284 0-4.216 1.775-4.216 5.32 0 3.464 1.878 5.077 4.223 5.077 1.66 0 2.59-.834 2.969-1.695h.122v1.905c0 1.43-.915 1.986-2.17 1.986-1.274 0-1.917-.556-2.155-1.186l-2.67.36c.345 1.64 1.952 2.9 4.758 2.9Zm.06-6.439c-1.416 0-2.188-1.125-2.188-2.921 0-1.77.759-3.01 2.189-3.01 1.403 0 2.19 1.186 2.19 3.01 0 1.837-.8 2.921-2.19 2.921ZM91.273 25.48c3.159 0 5.124-2.162 5.124-5.368 0-3.226-1.965-5.381-5.124-5.381-3.158 0-5.124 2.155-5.124 5.381 0 3.206 1.966 5.369 5.124 5.369Zm.014-2.236c-1.458 0-2.203-1.336-2.203-3.152 0-1.817.745-3.159 2.203-3.159 1.43 0 2.175 1.342 2.175 3.159 0 1.816-.745 3.152-2.175 3.152ZM97.702 25.277h2.888V14.866h-2.888v10.41Zm1.45-11.753c.862 0 1.566-.658 1.566-1.464 0-.8-.704-1.458-1.565-1.458-.854 0-1.56.658-1.56 1.458 0 .806.706 1.464 1.56 1.464ZM102.331 29.181h2.887V23.61h.088c.4.867 1.274 1.837 2.955 1.837 2.373 0 4.223-1.878 4.223-5.362 0-3.579-1.932-5.355-4.216-5.355-1.742 0-2.575 1.037-2.962 1.885h-.129v-1.749h-2.846v14.315Zm2.826-9.11c0-1.857.786-3.043 2.189-3.043 1.431 0 2.19 1.24 2.19 3.044 0 1.816-.773 3.077-2.19 3.077-1.389 0-2.189-1.22-2.189-3.077ZM122.498 17.835c-.258-1.918-1.803-3.105-4.433-3.105-2.664 0-4.419 1.234-4.413 3.24-.006 1.56.976 2.57 3.01 2.976l1.803.36c.908.182 1.322.514 1.335 1.036-.013.617-.684 1.058-1.694 1.058-1.031 0-1.715-.441-1.891-1.288l-2.84.149c.271 1.993 1.965 3.22 4.724 3.22 2.697 0 4.629-1.377 4.636-3.43-.007-1.505-.99-2.406-3.009-2.82l-1.885-.38c-.969-.21-1.328-.542-1.321-1.043-.007-.624.698-1.03 1.592-1.03 1.004 0 1.6.549 1.742 1.22l2.644-.163ZM130.657 20.843c.007 1.397-.949 2.129-1.986 2.129-1.091 0-1.796-.766-1.803-1.993v-6.114h-2.887v6.63c.006 2.432 1.43 3.917 3.524 3.917 1.566 0 2.691-.807 3.159-2.027h.108v1.891h2.772v-10.41h-2.887v5.977ZM135.282 25.277h2.888v-6.25c0-1.152.732-1.917 1.694-1.917.949 0 1.586.65 1.586 1.674v6.493h2.8V18.92c0-1.077.617-1.81 1.667-1.81.922 0 1.613.577 1.613 1.736v6.432h2.881v-7.002c0-2.257-1.342-3.544-3.281-3.544-1.525 0-2.711.779-3.138 1.972h-.108c-.332-1.207-1.397-1.973-2.827-1.973-1.403 0-2.467.746-2.901 1.973h-.122v-1.837h-2.752v10.411Z"/><path fill="#341492" d="M17.79 2.5h8.998l-3.612 10.094c-6.357 1.117-11.22 7.269-11.22 14.689 0 3.348.99 6.437 2.66 8.922H2.665L13.59 5.678c.687-1.92 2.35-3.178 4.2-3.178Z"/><path fill="#000" fill-opacity=".3" d="m26.788 2.5-2.539 7.094-.765-7.094h3.304Z"/><path fill="#4C28B5" d="M32.483 2.5h-8.999l3.597 10.052c6.484.993 11.48 7.21 11.48 14.731 0 3.348-.99 6.437-2.66 8.922h11.705L36.682 5.678c-.686-1.92-2.35-3.178-4.199-3.178Z"/><path fill="#4C28B5" d="M16.185 35.233c-1.538-2.19-2.455-4.95-2.455-7.95 0-7.118 5.162-12.888 11.529-12.888s11.529 5.77 11.529 12.888c0 3-.917 5.76-2.455 7.95a15.146 15.146 0 0 0-9.074-2.994c-3.407 0-6.55 1.115-9.074 2.994Z"/></svg>